<svg width="77" height="23" viewBox="0 0 77 23" xmlns="http://www.w3.org/2000/svg" xmlns:xlink="http://www.w3.org/1999/xlink">
    <defs>
        <linearGradient x1="0%" y1="45.838%" x2="100%" y2="54.162%" id="b">
            <stop stop-color="#258CBF" offset="0%"/>
            <stop stop-color="#4ED3BE" offset="100%"/>
        </linearGradient>
        <path d="M5.254 1233.479c.97 0 1.455-.228 1.455-.684-.04-.469-.264-.703-.674-.703-.664 0-1.328.026-1.992.078-.495-.026-.977-.04-1.445-.04H1.455c-.573.027-.86.173-.86.44v.078c0 .215.079.375.235.479 0 .17 1.475.286 4.424.352zm7.96 6.728a1.55 1.55 0 0 0 .537-.312l.361-1.973c.814-2.227 1.53-3.34 2.149-3.34h.039c.013 0 .042.013.088.04.136 0 .423.406.859 1.22.69 1.92 1.728 2.88 3.115 2.88 1.296 0 2.39-.514 3.281-1.542 1.023-1.44 1.664-2.793 1.924-4.063 0-.377-.208-.586-.625-.625-.416 0-.745.501-.986 1.504a9.484 9.484 0 0 1-1.28 2.373c-.774.775-1.467 1.162-2.08 1.162h-.234c-.163 0-.312-.032-.449-.097-.417-.176-.83-.73-1.24-1.66-.606-1.615-1.358-2.422-2.256-2.422-.69 0-1.37.4-2.041 1.2-.346.693-.63 1.179-.85 1.457l-.03.037.023-.248c.073-.805.16-1.377.26-1.717l.03-.095c0-.228.723-1.217 2.168-2.968 1.465-1.81 2.526-3.252 3.184-4.327 1.98-3.372 2.969-5.706 2.969-7.002 0-.488-.287-.765-.86-.83h-.087c-.346 0-.74.192-1.182.577-.475.462-1.123 1.292-1.943 2.49-1.075 1.393-2.699 4.674-4.874 9.844-.664 1.308-.996 3.17-.996 5.585.026.463.079.938.157 1.426.065.95.354 1.426.869 1.426zm2.197-10.346.056-.15c.346-.917.926-2.233 1.74-3.947 0-.287.73-1.498 2.188-3.633.814-1.152 1.254-1.729 1.319-1.729.01 0 .019-.001.025-.004l.004-.006v.01a14.134 14.134 0 0 1-.777 2.148l-.18.391c-.918 1.954-1.937 3.646-3.057 5.079-.575.863-.995 1.454-1.26 1.772l-.058.069zm13.414 7.817c.572-.052.92-.078 1.044-.078 1.133 0 2.738-.466 4.815-1.397 2.038-1.49 3.148-2.598 3.33-3.32-.15-.384-.365-.576-.645-.576h-.039c-.299 0-.612.293-.937.879-2.188 2.2-4.57 3.3-7.149 3.3h-.351c-.794 0-1.484-.16-2.07-.478-.58-.332-1.006-.95-1.28-1.856v-.039c0-.032.02-.062.059-.088 1.7-.52 2.708-.862 3.027-1.025 1.367-.885 2.123-1.745 2.266-2.578 0-.593-.479-.954-1.436-1.084h-.175c-.404 0-.847.12-1.329.361-.67.143-1.565.742-2.685 1.797-.742 1.126-1.113 1.927-1.113 2.402.11.853.237 1.28.38 1.28.398.664.951 1.279 1.66 1.845 1.186.437 2.061.655 2.628.655zm-2.885-4.996c.03-.095.165-.282.404-.56.645-.795 1.608-1.352 2.89-1.67h.089c.071 0 .107.022.107.068 0 .234-.495.722-1.484 1.464-1.022.476-1.722.713-2.1.713l.094-.015zm13.056 8.15c.293 0 .58-.202.86-.605 1.594-1.836 2.48-2.754 2.656-2.754.065 0 .25.156.556.468 1.276 1.589 2.875 2.383 4.795 2.383h.195c1.66 0 3.304-.79 4.932-2.373.52-.469 1.058-1.217 1.611-2.246.697-1.309 1.045-2.18 1.045-2.617v-.195c-.195-.267-.355-.4-.478-.4h-.342c-.326.208-.586.598-.781 1.171-.43 1.061-.88 1.956-1.348 2.686-1.367 1.829-2.874 2.744-4.521 2.744h-.118c-.78 0-1.543-.209-2.285-.625-1.217-.886-1.91-1.599-2.08-2.139v-.039c0-.033.163-.267.488-.703 1.993-2.044 2.989-3.216 2.989-3.516 0-.319-.163-.517-.489-.595-.162 0-.4.084-.712.253-.3.508-.573.892-.82 1.153-1.42 1.536-2.156 2.304-2.208 2.304h-.03c-.13-.013-.34-.27-.634-.771-1.4-1.309-2.545-1.963-3.437-1.963h-.293c-1.088.137-1.631.427-1.631.87v.087a.553.553 0 0 0 .547.352l.82-.196c.065 0 .189.023.371.069 1.432.534 2.455 1.452 3.067 2.754 0 .058-.212.322-.635.79-1.765 1.81-2.647 2.856-2.647 3.135v.166c.104.235.277.352.518.352h.039zm19.497-.03c1.576 0 2.917-.764 4.024-2.294 1.282-1.875 1.924-3.835 1.924-5.88v-1.444c0-.905-.33-1.696-.987-2.373-1.21-.847-2.317-1.27-3.32-1.27h-.352c-.481 0-.947.16-1.396.479-.592.514-1.136 1.295-1.63 2.343-1.062 1.784-1.593 3.633-1.593 5.547v.274c0 1.263.251 2.249.752 2.959.873 1.106 1.732 1.66 2.578 1.66zm.274-1.347h-.274a.693.693 0 0 1-.322-.059c-1.107-.475-1.66-1.48-1.66-3.017v-.234c0-.847.153-1.827.459-2.94.527-1.523 1.097-2.718 1.709-3.584.462-.488 1.064-.732 1.807-.732h.195c.345 0 .648.084.908.254 1.003.338 1.504.966 1.504 1.884v1.407a9.131 9.131 0 0 1-1.025 4.218c-1.068 1.869-2.168 2.803-3.301 2.803zm10.806.713c.898-.11 1.598-.306 2.1-.586 1.438-.977 2.467-1.976 3.086-2.998 1.217-1.784 1.881-2.858 1.992-3.223v-.117c0-.312-.202-.524-.606-.635-.416 0-.823.446-1.22 1.338-1.068 1.686-1.99 2.914-2.764 3.682-1.061.846-1.917 1.27-2.568 1.27h-.157a.577.577 0 0 1-.273-.088c-.606-.28-.94-.98-1.006-2.1 0-.983.433-2.464 1.299-4.443.58-.853.928-1.41 1.045-1.67 0-.365-.192-.58-.576-.645h-.352c-1.654.781-2.91 1.305-3.77 1.572-.605.248-.976.45-1.113.606l-.361.586c.097.397.397.625.898.683.489-.423.905-.7 1.25-.83.671-.287 1.166-.457 1.484-.51l.098-.012v.024l-.254.81c-.638 1.4-.957 2.719-.957 3.956 0 .657.075 1.149.225 1.475.638 1.236 1.452 1.855 2.441 1.855h.059z" id="a"/>
    </defs>
    <g transform="translate(0 -1218)" fill-rule="nonzero" fill="none">
        <use fill="#4842D1" xlink:href="#a"/>
        <use fill="url(#b)" xlink:href="#a"/>
    </g>
</svg>
