<svg width="128" height="24" xmlns="http://www.w3.org/2000/svg">
    <g fill-rule="nonzero" fill="none">
        <path d="M4 0h20v24H4a4 4 0 0 1-4-4V4a4 4 0 0 1 4-4zm22 0h24v24H26V0zm26 0h24v24H52V0zm26 0h24v24H78V0zm26 0h20a4 4 0 0 1 4 4v16a4 4 0 0 1-4 4h-20V0z" fill="#00B67A"/>
        <path d="m12.414 16.201 3.656-.93L17.597 20l-5.183-3.799zm8.414-6.113h-6.436L12.414 4l-1.978 6.088H4l5.209 3.774L7.23 19.95l5.209-3.774 3.205-2.314 5.184-3.774zm17.629 6.113 3.656-.93L43.641 20l-5.184-3.799zm8.414-6.113h-6.436L38.457 4l-1.978 6.088h-6.436l5.209 3.774-1.979 6.088 5.209-3.774 3.205-2.314 5.184-3.774zM64.5 16.201l3.656-.93L69.684 20 64.5 16.201zm8.414-6.113h-6.436L64.5 4l-1.978 6.088h-6.436l5.209 3.774-1.979 6.088 5.209-3.774 3.205-2.314 5.184-3.774zm17.629 6.113 3.656-.93L95.727 20l-5.184-3.799zm8.414-6.113h-6.436L90.543 4l-1.978 6.088h-6.436l5.209 3.774-1.979 6.088 5.21-3.774 3.204-2.314 5.184-3.774zm17.63 6.113 3.655-.93L121.77 20l-5.184-3.799zM125 10.088h-6.436L116.586 4l-1.978 6.088h-6.436l5.209 3.774-1.978 6.088 5.208-3.774 3.205-2.314L125 10.088z" fill="#FFF"/>
    </g>
</svg>
