<?xml version="1.0" encoding="UTF-8"?>
<svg width="24px" height="24px" viewBox="0 0 24 24" version="1.1" xmlns="http://www.w3.org/2000/svg" xmlns:xlink="http://www.w3.org/1999/xlink">
    <title>Group 6</title>
    <g id="Page-1" stroke="none" stroke-width="1" fill="none" fill-rule="evenodd">
        <g id="about-landing-page-real-content" transform="translate(-647.000000, -4113.000000)">
            <g id="content" transform="translate(224.000000, 224.000000)">
                <g id="section-team" transform="translate(0.000000, 3513.000000)">
                    <g id="content" transform="translate(0.000000, 158.000000)">
                        <g id="1" transform="translate(0.000000, 162.000000)">
                            <g id="button-discord" transform="translate(407.000000, 40.000000)">
                                <g id="Group-6" transform="translate(16.000000, 16.000000)">
                                    <rect id="Rectangle" x="0" y="0" width="24" height="24" rx="2"></rect>
                                    <g id="Discord-Logo-White" transform="translate(2.000000, 4.000000)" fill="#FFFFFF" fill-rule="nonzero">
                                        <path d="M16.9308446,1.3263127 C15.6561123,0.712420224 14.2891546,0.260131307 12.8599152,0.00108665869 C12.833887,-0.00391282202 12.807887,0.00858114932 12.7944785,0.0335696833 C12.6186757,0.361747009 12.4239433,0.789881132 12.2875771,1.1263926 C10.7503377,0.884844657 9.22098566,0.884844657 7.71526739,1.1263926 C7.57887303,0.782401128 7.37707022,0.361747009 7.20047867,0.0335696833 C7.18707022,0.00941488886 7.16107022,-0.00307908248 7.13504205,0.00108665869 C5.70659138,0.259303481 4.33963367,0.711592398 3.06411257,1.3263127 C3.05307032,1.33130922 3.04360553,1.33964662 3.03732384,1.35046749 C0.444492916,5.41610079 -0.265791856,9.3818036 0.0826501079,13.2983394 C0.0842267276,13.3174977 0.0944748964,13.3358281 0.108665037,13.3474768 C1.81934077,14.6660271 3.47642242,15.4665057 5.10273224,15.9970834 C5.12876041,16.0054208 5.15633787,15.9954277 5.17290125,15.9729286 C5.55760547,15.421537 5.90053504,14.8401367 6.1945632,14.2287277 C6.21191531,14.1929242 6.19535193,14.150439 6.15988715,14.1362772 C5.6159435,13.9197119 5.09799985,13.6556648 4.59977451,13.3558142 C4.56036606,13.3316594 4.55721113,13.2724994 4.59346465,13.2441759 C4.69830972,13.1617185 4.80318295,13.0759202 4.90329563,12.9892941 C4.9214083,12.9734767 4.94664774,12.9701358 4.96794351,12.9801288 C8.24107019,14.548594 11.7846194,14.548594 15.0191264,12.9801288 C15.0404221,12.969308 15.0656616,12.9726488 15.084563,12.9884662 C15.1847038,13.0750924 15.2895489,13.1617185 15.3951827,13.2441759 C15.4314362,13.2724994 15.42907,13.3316594 15.3896616,13.3558142 C14.8914362,13.6614892 14.3734926,13.9197119 13.8287602,14.1354494 C13.7932954,14.1496112 13.7775208,14.1929242 13.7948729,14.2287277 C14.0952109,14.8392793 14.4381405,15.4206796 14.8157461,15.9721007 C14.8315207,15.9954277 14.8598869,16.0054208 14.8859151,15.9970834 C16.5201123,15.4665057 18.1771826,14.6660271 19.8878586,13.3474768 C19.9028446,13.3358281 19.9123094,13.3183255 19.9138868,13.2991673 C20.3309009,8.77122243 19.215408,4.83804137 16.9568446,1.35129532 C16.9513235,1.33964662 16.9418869,1.33130922 16.9308446,1.3263127 Z M6.99988873,11 C5.90344146,11 5,10.1023756 5,9 C5,7.89762437 5.88592112,7 6.99988873,7 C8.12260084,7 9.0172978,7.90550587 8.99974612,9 C8.99974612,10.1023756 8.113825,11 6.99988873,11 Z M12.9998578,11 C11.9034417,11 11,10.1023756 11,9 C11,7.89762437 11.88589,7 12.9998578,7 C14.1226015,7 15.0172673,7.90550587 14.999747,9 C14.999747,10.1023756 14.1226015,11 12.9998578,11 Z" id="Shape"></path>
                                    </g>
                                </g>
                            </g>
                        </g>
                    </g>
                </g>
            </g>
        </g>
    </g>
</svg>