<svg width="12" height="14" viewBox="0 0 12 14" fill="none" xmlns="http://www.w3.org/2000/svg">
<path d="M4.9 13V13.2414L5.07071 13.0707L7.32071 10.8207L7.39142 10.75L7.32071 10.6793L5.07071 8.42929L4.9 8.25858V8.5V9.89795C3.62154 9.84546 2.6 8.79127 2.6 7.5C2.6 7.11517 2.68654 6.75052 2.84944 6.42472L2.88168 6.36025L2.83071 6.30929L1.74071 5.21929L1.65446 5.13304L1.5868 5.23453C1.15634 5.88021 0.9 6.65938 0.9 7.5C0.9 9.7318 2.68102 11.5458 4.9 11.5988V13ZM10.2593 8.78071L10.3455 8.86696L10.4132 8.76547C10.8437 8.11979 11.1 7.34062 11.1 6.5C11.1 4.2682 9.31898 2.45425 7.1 2.40119V1V0.758579L6.92929 0.929289L4.67929 3.17929L4.60858 3.25L4.67929 3.32071L6.92929 5.57071L7.1 5.74142V5.5V4.10205C8.37846 4.15453 9.4 5.20873 9.4 6.5C9.4 6.88483 9.31346 7.24948 9.15056 7.57528L9.11832 7.63975L9.16929 7.69071L10.2593 8.78071Z" fill="white" stroke="white" stroke-width="0.2"/>
</svg>
