<?xml version="1.0" encoding="UTF-8"?>
<svg width="24px" height="24px" viewBox="0 0 24 24" version="1.1" xmlns="http://www.w3.org/2000/svg" xmlns:xlink="http://www.w3.org/1999/xlink">
    <title>google</title>
    <g id="Page-1" stroke="none" stroke-width="1" fill="none" fill-rule="evenodd">
        <g id="login-validation-[landing-page-real-content]" transform="translate(-784.000000, -672.000000)">
            <g id="form" transform="translate(224.000000, 136.000000)">
                <g transform="translate(308.000000, 152.000000)" id="content">
                    <g transform="translate(44.000000, 144.000000)">
                        <g id="buttons-social-media" transform="translate(192.000000, 224.000000)">
                            <g id="google" transform="translate(16.000000, 16.000000)">
                                <rect id="Rectangle" x="0" y="0" width="24" height="24" rx="2"></rect>
                                <g id="cdnlogo.com_google-icon" transform="translate(2.000000, 2.000000)" fill-rule="nonzero">
                                    <path d="M20,10.4308303 C20,9.59183673 19.9319207,8.97959184 19.7845848,8.34467989 L10.2040816,8.34467989 L10.2040816,12.1314845 L15.827621,12.1314845 C15.7142857,13.072558 15.1020408,14.4897959 13.7414705,15.4421248 L13.722399,15.5689039 L16.7515769,17.9155691 L16.9614426,17.9365166 C18.8888455,16.1564496 20,13.5373889 20,10.4308303" id="Path" fill="#4285F4"></path>
                                    <path d="M10.2040816,20.4081633 C12.9591446,20.4081633 15.2720437,19.5010904 16.9614426,17.9365166 L13.7414705,15.4421248 C12.8798099,16.0430361 11.7233213,16.4625329 10.2040816,16.4625329 C7.5056863,16.4625329 5.21545424,14.682544 4.39904955,12.2222309 L4.27938314,12.232392 L1.12960083,14.6700381 L1.08840932,14.7845458 C2.76639649,18.117853 6.21311719,20.4081633 10.2040816,20.4081633" id="Path" fill="#34A853"></path>
                                    <path d="M4.39904955,12.2222309 C4.18363439,11.587319 4.0589656,10.9069947 4.0589656,10.2040816 C4.0589656,9.50109036 4.18363439,8.82084431 4.38771602,8.18593236 L4.38201018,8.05071167 L1.19275592,5.57390631 L1.08840932,5.62353934 C0.396829739,7.00677667 0,8.56009505 0,10.2040816 C0,11.8480682 0.396829739,13.4013084 1.08840932,14.7845458 L4.39904955,12.2222309" id="Path" fill="#FBBC05"></path>
                                    <path d="M10.2040816,3.94555218 C12.120151,3.94555218 13.412642,4.77321223 14.1496338,5.46486998 L17.0294437,2.65306122 C15.2607883,1.00907464 12.9591446,0 10.2040816,0 C6.21311719,0 2.76639649,2.29023206 1.08840932,5.62353934 L4.38771602,8.18593236 C5.21545424,5.72561924 7.5056863,3.94555218 10.2040816,3.94555218" id="Path" fill="#EB4335"></path>
                                </g>
                            </g>
                        </g>
                    </g>
                </g>
            </g>
        </g>
    </g>
</svg>