<svg width="20" height="20" xmlns="http://www.w3.org/2000/svg">
    <defs>
        <linearGradient x1="0%" y1="0%" x2="100%" y2="100%" id="a">
            <stop stop-color="#258CBF" offset="0%"/>
            <stop stop-color="#4ED3BE" offset="100%"/>
        </linearGradient>
    </defs>
    <path d="M29.293 16.851c1.196-1.196.65-2.593 0-3.273l-2.871-2.87c-1.206-1.197-2.594-.652-3.273 0l-1.627 1.636h-2.479c-1.818 0-2.871.957-3.407 2.057l-4.25 4.25v3.827l-.679.67c-1.196 1.206-.65 2.593 0 3.273l2.871 2.87c.517.518 1.072.709 1.599.709.679 0 1.301-.335 1.674-.708l2.584-2.594h3.436c1.627 0 2.45-1.014 2.747-2.01 1.081-.286 1.675-1.11 1.914-1.913 1.483-.383 2.038-1.79 2.038-2.776v-2.87h-.564l.287-.278m-1.637 3.148c0 .431-.182.957-.957.957h-.957v.957c0 .431-.182.957-.957.957h-.957v.957c0 .431-.182.957-.957.957h-4.22l-3.14 3.14c-.296.277-.468.114-.574.009l-2.861-2.852c-.278-.297-.115-.469-.01-.574l1.235-1.244v-3.828l1.914-1.914v1.521c0 1.158.765 2.871 2.87 2.871 2.106 0 2.872-1.713 2.872-2.87h6.7v.956m.277-4.507-1.627 1.637h-7.264v1.913c0 .431-.182.957-.957.957-.775 0-.957-.526-.957-.957v-2.87c0-.44.163-1.914 1.914-1.914h3.263l2.183-2.182c.296-.278.468-.115.574-.01l2.861 2.852c.278.297.115.469.01.574z" transform="translate(-10 -10)" fill="url(#a)" fill-rule="nonzero"/>
</svg>
