<?xml version="1.0" encoding="UTF-8"?>
<svg width="24px" height="24px" viewBox="0 0 24 24" version="1.1" xmlns="http://www.w3.org/2000/svg" xmlns:xlink="http://www.w3.org/1999/xlink">
    <title>hand-okay</title>
    <g id="Page-1" stroke="none" stroke-width="1" fill="none" fill-rule="evenodd">
        <g id="about-landing-page-real-content" transform="translate(-245.000000, -2388.000000)">
            <g id="content" transform="translate(224.000000, 224.000000)">
                <g id="section-3-icons" transform="translate(1.000000, 1976.000000)">
                    <g id="section" transform="translate(0.000000, 168.000000)">
                        <g id="hand-okay" transform="translate(20.000000, 20.000000)">
                            <rect id="Rectangle" x="0" y="0" width="24" height="24" rx="2"></rect>
                            <path d="M13.3751974,19.6343921 L19.0351974,13.9843921 L21.1551974,16.1043921 L15.4951974,21.7543921 L13.3751974,19.6343921 M16.5751974,11.5043921 L13.4751974,8.4243921 C13.3451974,8.2943921 13.2051974,8.2043921 13.0751974,8.1343921 L11.9551974,3.8443921 C11.8151974,3.3043921 11.2751974,2.9843921 10.7351974,3.1243921 C10.2051974,3.2543921 9.88519744,3.8043921 10.0151974,4.3343921 L11.0751974,8.4043921 L11.0751974,8.4043921 L8.74519744,3.5643921 C8.51519744,3.0643921 7.91519744,2.8743921 7.41519744,3.0843921 C6.91519744,3.3243921 6.70519744,3.9243921 6.94519744,4.4243921 L8.63519744,7.9643921 L5.26519744,4.6243921 C4.87519744,4.2343921 4.23519744,4.2343921 3.84519744,4.6243921 C3.45519744,5.0243921 3.46519744,5.6543921 3.85519744,6.0443921 L7.57519744,9.7443921 L6.87519744,10.0143921 L5.79519744,10.4443921 L3.88519744,11.7643921 C3.88519744,11.7643921 3.07519744,12.8143921 3.00519744,13.2643921 C2.92519744,13.7143921 3.79519744,15.9743921 3.79519744,15.9743921 L3.80519744,15.9743921 C3.96519744,16.3143921 4.30519744,16.5543921 4.70519744,16.5543921 C5.25748219,16.5543921 5.70519744,16.1066768 5.70519744,15.5543921 C5.70519744,15.4543921 5.67519744,15.3743921 5.64519744,15.2843921 L5.66519744,15.2743921 L5.07519744,13.5443921 L6.30519744,12.5643921 C6.77519744,12.5843921 7.78519744,12.6643921 8.27519744,12.6943921 C11.0051974,15.1443921 8.42519744,16.1043921 8.42519744,16.1043921 L4.96519744,17.1643921 L4.79519744,17.3043921 C4.57519744,17.5043921 4.48519744,17.7743921 4.49519744,18.0543921 L4.51519744,19.1243921 L10.9451974,18.6243921 C11.3251974,18.6343921 11.6851974,18.4943921 11.9651974,18.2243921 L16.5751974,13.6243921 C17.1051974,13.0843921 17.1251974,12.0743921 16.5751974,11.5043921 Z" id="Shape" fill="#FFFFFF" fill-rule="nonzero"></path>
                        </g>
                    </g>
                </g>
            </g>
        </g>
    </g>
</svg>