<svg width="24" height="24" viewBox="0 0 24 24" xmlns="http://www.w3.org/2000/svg">
    <defs>
        <linearGradient x1="8.678%" y1="100%" x2="99.373%" y2="-25.349%" id="a">
            <stop stop-color="#C49540" offset="0%"/>
            <stop stop-color="#E9B65E" offset="100%"/>
        </linearGradient>
        <linearGradient x1="43.032%" y1="100%" x2="56.968%" y2="0%" id="b">
            <stop stop-color="#1EA3AE" offset="0%"/>
            <stop stop-color="#2DE8E9" offset="53.25%"/>
            <stop stop-color="#D8D8D8" offset="100%"/>
            <stop stop-color="#158997" offset="100%"/>
        </linearGradient>
    </defs>
    <g fill="none" fill-rule="evenodd">
        <path d="m15.875 19 .001-.001h3.266V19h1.865l-1.254 4H6l1-2V3L6 1h5.993l-.001 1H12v2h-.007L12 19h3.875zM5 4.86v3.265A7.964 7.964 0 0 0 4 12c0 1.406.363 2.728 1 3.876v3.265A9.97 9.97 0 0 1 2 12a9.97 9.97 0 0 1 3-7.141zM22 12a9.954 9.954 0 0 1-1.338 5h-2.417A8.003 8.003 0 0 0 14 4.252l.001-2.052C18.565 3.127 22 7.162 22 12z" fill="url(#a)" fill-rule="nonzero"/>
        <path d="M14 17h2c1.72-2.068 2.386-4.068 2-6-.386-1.932-1.72-3.599-4-5v11z" fill="url(#b)"/>
    </g>
</svg>
