<svg width="24" height="25" viewBox="0 0 24 25" xmlns="http://www.w3.org/2000/svg" xmlns:xlink="http://www.w3.org/1999/xlink">
    <defs>
        <linearGradient x1="50%" y1="50%" x2="50%" y2="50.142%" id="b">
            <stop stop-color="#FFF" offset="0%"/>
            <stop stop-color="#FFF" stop-opacity="0" offset="100%"/>
            <stop stop-color="#FFF" stop-opacity="0" offset="100%"/>
        </linearGradient>
        <rect id="a" x="0" y="0" width="24" height="24" rx="11.5"/>
    </defs>
    <g transform="translate(0 .5)" fill="none" fill-rule="evenodd">
        <mask id="c" fill="#fff">
            <use xlink:href="#a"/>
        </mask>
        <use fill="#C28F2C" xlink:href="#a"/>
        <rect stroke-opacity=".1" stroke="#FFF" stroke-width="2" stroke-linejoin="square" fill-opacity=".2" fill="url(#b)" x="1" y="1" width="22" height="22" rx="11"/>
        <path fill="#FFF" fill-rule="nonzero" mask="url(#c)" d="M9.395 4H5l.83 1.65v12.702L5 20h10.085L16 16.879H9.395z"/>
        <path d="M11.905 4C16.375 4 20 7.434 20 11.673c0 2.626-1.394 4.945-3.518 6.327l.433-1.465.195-.661c1.031-1.135 1.656-2.61 1.656-4.223 0-3.58-3.072-6.483-6.86-6.483-.662 0-1.3.09-1.906.255V4.215A8.591 8.591 0 0 1 11.905 4zM5 9v7a6.67 6.67 0 0 1-1-3.5c0-1.268.363-2.46 1-3.5zm7.659-3C15.609 6 18 8.649 18 11.917c0 1.583-.563 3.021-1.478 4.083H11V6.292A4.89 4.89 0 0 1 12.66 6z" fill="#F8DCA5" fill-rule="nonzero" mask="url(#c)"/>
    </g>
</svg>
