<svg width="317" height="24" viewBox="0 0 317 24" fill="none" xmlns="http://www.w3.org/2000/svg">
<rect x="187" width="38" height="24" rx="2.32268" fill="white"/>
<path fill-rule="evenodd" clip-rule="evenodd" d="M195.102 7.89884C194.689 7.60519 194.151 7.45801 193.486 7.45801H190.912C190.708 7.45801 190.595 7.56343 190.574 7.77409L189.528 14.5627C189.517 14.6293 189.534 14.6903 189.577 14.7458C189.619 14.8013 189.673 14.8289 189.737 14.8289H190.96C191.174 14.8289 191.292 14.7237 191.314 14.5128L191.603 12.6827C191.614 12.594 191.652 12.5219 191.716 12.4663C191.78 12.4109 191.861 12.3746 191.957 12.358C192.054 12.3415 192.145 12.3332 192.231 12.3332C192.317 12.3332 192.418 12.3388 192.537 12.3499C192.654 12.361 192.73 12.3663 192.762 12.3663C193.684 12.3663 194.408 12.0976 194.934 11.5594C195.459 11.0215 195.722 10.2757 195.722 9.32152C195.722 8.66714 195.515 8.19295 195.102 7.89884ZM193.775 9.9368C193.722 10.3251 193.582 10.5801 193.357 10.7022C193.132 10.8244 192.81 10.8851 192.392 10.8851L191.861 10.9018L192.135 9.12141C192.156 8.99951 192.226 8.93848 192.344 8.93848H192.649C193.078 8.93848 193.389 9.0024 193.582 9.12975C193.775 9.2574 193.84 9.52649 193.775 9.9368Z" fill="#003087"/>
<path fill-rule="evenodd" clip-rule="evenodd" d="M222.266 7.45801H221.075C220.957 7.45801 220.887 7.51904 220.866 7.64109L219.821 14.5627L219.804 14.596C219.804 14.6517 219.826 14.7041 219.869 14.7541C219.912 14.8039 219.965 14.8289 220.03 14.8289H221.092C221.295 14.8289 221.408 14.7237 221.429 14.5128L222.475 7.70746V7.69093C222.475 7.53567 222.405 7.45801 222.266 7.45801Z" fill="#009CDE"/>
<path fill-rule="evenodd" clip-rule="evenodd" d="M207.884 10.1362C207.884 10.0809 207.862 10.0281 207.82 9.97828C207.776 9.92839 207.728 9.90332 207.675 9.90332H206.436C206.318 9.90332 206.221 9.95906 206.146 10.0697L204.441 12.6654L203.733 10.1696C203.679 9.99227 203.562 9.90332 203.379 9.90332H202.173C202.119 9.90332 202.071 9.92834 202.028 9.97828C201.985 10.0281 201.964 10.081 201.964 10.1362C201.964 10.1586 202.068 10.4857 202.277 11.1179C202.486 11.7504 202.712 12.4326 202.953 13.1647C203.194 13.8967 203.32 14.2851 203.331 14.3292C202.452 15.5717 202.012 16.2372 202.012 16.3258C202.012 16.4702 202.082 16.5422 202.221 16.5422H203.46C203.578 16.5422 203.674 16.4868 203.749 16.3759L207.852 10.2527C207.873 10.2307 207.884 10.192 207.884 10.1362Z" fill="#003087"/>
<path fill-rule="evenodd" clip-rule="evenodd" d="M219.418 9.90357H218.196C218.045 9.90357 217.955 10.0867 217.922 10.4527C217.643 10.0092 217.134 9.78711 216.394 9.78711C215.622 9.78711 214.965 10.0867 214.423 10.6857C213.882 11.2847 213.611 11.9892 213.611 12.7988C213.611 13.4534 213.796 13.9747 214.166 14.3628C214.536 14.7513 215.032 14.9452 215.654 14.9452C215.965 14.9452 216.281 14.8785 216.603 14.7455C216.925 14.6124 217.177 14.435 217.359 14.2131C217.359 14.2242 217.348 14.274 217.327 14.3627C217.305 14.4516 217.295 14.5183 217.295 14.5624C217.295 14.7401 217.364 14.8286 217.504 14.8286H218.614C218.818 14.8286 218.936 14.7234 218.968 14.5125L219.628 10.1698C219.638 10.1032 219.622 10.0423 219.579 9.98677C219.536 9.93139 219.483 9.90357 219.418 9.90357ZM217.319 13.1813C217.046 13.4586 216.716 13.5972 216.33 13.5972C216.019 13.5972 215.767 13.5086 215.574 13.331C215.38 13.1538 215.284 12.9098 215.284 12.5989C215.284 12.1888 215.418 11.8419 215.686 11.5591C215.954 11.2762 216.287 11.1348 216.684 11.1348C216.984 11.1348 217.233 11.2263 217.432 11.4092C217.63 11.5923 217.729 11.8447 217.729 12.1665C217.729 12.5657 217.592 12.9041 217.319 13.1813Z" fill="#009CDE"/>
<path fill-rule="evenodd" clip-rule="evenodd" d="M201.143 9.90357H199.921C199.77 9.90357 199.679 10.0867 199.647 10.4527C199.358 10.0092 198.848 9.78711 198.119 9.78711C197.347 9.78711 196.69 10.0867 196.148 10.6857C195.606 11.2847 195.336 11.9892 195.336 12.7988C195.336 13.4534 195.521 13.9747 195.891 14.3628C196.261 14.7513 196.757 14.9452 197.379 14.9452C197.679 14.9452 197.99 14.8785 198.312 14.7455C198.634 14.6124 198.891 14.435 199.084 14.2131C199.041 14.3462 199.02 14.4627 199.02 14.5624C199.02 14.7401 199.089 14.8286 199.229 14.8286H200.339C200.542 14.8286 200.661 14.7234 200.693 14.5125L201.352 10.1698C201.363 10.1032 201.347 10.0423 201.304 9.98677C201.261 9.93139 201.208 9.90357 201.143 9.90357ZM199.044 13.1896C198.77 13.4616 198.435 13.5972 198.038 13.5972C197.727 13.5972 197.478 13.5086 197.29 13.331C197.103 13.1538 197.009 12.9098 197.009 12.5989C197.009 12.1888 197.143 11.8419 197.411 11.5591C197.679 11.2762 198.011 11.1348 198.408 11.1348C198.709 11.1348 198.958 11.2263 199.157 11.4092C199.355 11.5923 199.454 11.8447 199.454 12.1665C199.454 12.5769 199.317 12.9181 199.044 13.1896Z" fill="#003087"/>
<path fill-rule="evenodd" clip-rule="evenodd" d="M213.378 7.89884C212.965 7.60519 212.426 7.45801 211.761 7.45801H209.203C208.988 7.45801 208.87 7.56343 208.849 7.77409L207.803 14.5627C207.793 14.6293 207.809 14.6903 207.852 14.7458C207.894 14.8013 207.948 14.8289 208.012 14.8289H209.332C209.46 14.8289 209.546 14.7569 209.589 14.6127L209.879 12.6827C209.889 12.594 209.927 12.5219 209.991 12.4663C210.056 12.4109 210.136 12.3746 210.233 12.358C210.329 12.3415 210.42 12.3332 210.506 12.3332C210.592 12.3332 210.694 12.3388 210.812 12.3499C210.93 12.361 211.005 12.3663 211.037 12.3663C211.959 12.3663 212.683 12.0976 213.209 11.5594C213.734 11.0215 213.997 10.2757 213.997 9.32152C213.997 8.66714 213.79 8.19295 213.378 7.89884ZM211.729 10.6356C211.493 10.802 211.139 10.8851 210.667 10.8851L210.152 10.9018L210.426 9.12141C210.447 8.99951 210.517 8.93848 210.635 8.93848H210.924C211.16 8.93848 211.348 8.94956 211.487 8.97169C211.627 8.99401 211.761 9.06318 211.89 9.17964C212.018 9.2961 212.083 9.46536 212.083 9.68715C212.083 10.1531 211.964 10.4691 211.729 10.6356Z" fill="#009CDE"/>
<path d="M267.597 0H236.403C236.273 0 236.143 0 236.013 0.000747416C235.904 0.00151748 235.794 0.00271788 235.685 0.00566224C235.446 0.0120266 235.206 0.0259104 234.97 0.0676751C234.731 0.110165 234.508 0.17947 234.291 0.288593C234.077 0.395745 233.882 0.535897 233.712 0.703137C233.543 0.870377 233.401 1.06296 233.292 1.27389C233.182 1.48822 233.111 1.70798 233.069 1.94426C233.026 2.1767 233.012 2.41399 233.005 2.64907C233.003 2.75697 233.001 2.86487 233.001 2.97274C233 3.10096 233 3.22909 233 3.35753V20.6427C233 20.7712 233 20.8991 233.001 21.0275C233.001 21.1354 233.003 21.2433 233.005 21.3512C233.012 21.5861 233.026 21.8234 233.069 22.0557C233.111 22.2921 233.182 22.5118 233.292 22.7261C233.401 22.9371 233.543 23.1299 233.712 23.2969C233.882 23.4644 234.077 23.6045 234.291 23.7114C234.508 23.8208 234.731 23.8902 234.97 23.9326C235.206 23.9741 235.446 23.9882 235.685 23.9946C235.794 23.9971 235.904 23.9985 236.013 23.999C236.143 24 236.273 24 236.403 24H267.597C267.727 24 267.857 24 267.986 23.999C268.096 23.9985 268.205 23.9971 268.315 23.9946C268.553 23.9882 268.794 23.9741 269.03 23.9326C269.269 23.8902 269.491 23.8208 269.709 23.7114C269.923 23.6045 270.118 23.4644 270.287 23.2969C270.457 23.1299 270.599 22.9371 270.708 22.7261C270.818 22.5118 270.889 22.2921 270.931 22.0557C270.974 21.8234 270.988 21.5861 270.994 21.3512C270.997 21.2433 270.998 21.1354 270.999 21.0275C271 20.8991 271 20.7712 271 20.6427V3.35753C271 3.22909 271 3.10096 270.999 2.97274C270.998 2.86487 270.997 2.75697 270.994 2.64907C270.988 2.41399 270.974 2.1767 270.931 1.94426C270.889 1.70798 270.818 1.48822 270.708 1.27389C270.599 1.06296 270.457 0.870377 270.287 0.703137C270.118 0.535897 269.923 0.395745 269.709 0.288593C269.491 0.17947 269.269 0.110165 269.03 0.0676751C268.794 0.0259104 268.553 0.0120266 268.315 0.00566224C268.205 0.00271788 268.096 0.00151748 267.986 0.000747416C267.857 0 267.727 0 267.597 0Z" fill="white"/>
<path d="M267.597 0.799805L267.981 0.800529C268.085 0.801254 268.189 0.802364 268.293 0.805172C268.475 0.810019 268.688 0.819736 268.886 0.854796C269.058 0.885418 269.203 0.931984 269.342 1.00165C269.479 1.0703 269.604 1.16026 269.714 1.26819C269.824 1.37683 269.915 1.50081 269.985 1.63741C270.056 1.77319 270.103 1.91511 270.133 2.08638C270.169 2.27985 270.179 2.49026 270.184 2.67074C270.186 2.77262 270.188 2.8745 270.188 2.97879C270.189 3.10493 270.189 3.23099 270.189 3.35737V20.6426C270.189 20.7689 270.189 20.8948 270.188 21.0236C270.188 21.1255 270.186 21.2273 270.184 21.3294C270.179 21.5096 270.169 21.7199 270.133 21.9157C270.103 22.0846 270.056 22.2265 269.985 22.363C269.915 22.4992 269.824 22.6231 269.714 22.731C269.604 22.8398 269.479 22.9295 269.34 22.9987C269.203 23.0681 269.058 23.1146 268.888 23.1449C268.685 23.1804 268.464 23.1902 268.297 23.1947C268.192 23.197 268.087 23.1984 267.98 23.1989C267.853 23.1999 267.725 23.1999 267.597 23.1999H236.403C236.402 23.1999 236.4 23.1999 236.398 23.1999C236.272 23.1999 236.146 23.1999 236.017 23.1989C235.913 23.1984 235.808 23.1971 235.707 23.1948C235.536 23.1902 235.315 23.1805 235.114 23.1451C234.942 23.1146 234.798 23.0681 234.658 22.9978C234.521 22.9292 234.396 22.8396 234.286 22.7306C234.176 22.6229 234.085 22.4995 234.015 22.363C233.945 22.2267 233.898 22.0843 233.867 21.9134C233.831 21.718 233.821 21.5085 233.816 21.3296C233.813 21.2271 233.812 21.1246 233.812 21.0227L233.811 20.722L233.811 20.6426V3.35737L233.811 3.27796L233.812 2.97784C233.812 2.87536 233.813 2.77289 233.816 2.6705C233.821 2.49132 233.831 2.28177 233.867 2.08477C233.898 1.91538 233.945 1.77301 234.015 1.636C234.085 1.50059 234.176 1.37697 234.286 1.26853C234.396 1.16044 234.521 1.0706 234.659 1.00129C234.797 0.931961 234.942 0.885418 235.114 0.854864C235.312 0.819713 235.525 0.810019 235.707 0.80515C235.811 0.802364 235.915 0.801254 236.018 0.800552L236.403 0.799805H267.597Z" fill="white"/>
<path d="M243.374 8.07153C243.7 7.67004 243.92 7.13096 243.862 6.58008C243.386 6.60344 242.805 6.89008 242.468 7.29188C242.166 7.63596 241.898 8.19762 241.968 8.7254C242.503 8.77116 243.037 8.46175 243.374 8.07153Z" fill="black"/>
<path d="M243.856 8.82825C243.079 8.78262 242.419 9.263 242.048 9.263C241.677 9.263 241.11 8.85124 240.495 8.86234C239.696 8.87393 238.954 9.3198 238.549 10.0289C237.714 11.4476 238.329 13.5519 239.14 14.7073C239.534 15.2789 240.009 15.9083 240.634 15.8857C241.226 15.8628 241.457 15.5081 242.176 15.5081C242.894 15.5081 243.103 15.8857 243.728 15.8743C244.377 15.8628 244.783 15.3024 245.177 14.7302C245.629 14.0786 245.814 13.4494 245.826 13.4149C245.814 13.4034 244.574 12.9343 244.563 11.5274C244.551 10.3494 245.536 9.78912 245.582 9.75437C245.026 8.94276 244.157 8.85124 243.856 8.82825Z" fill="black"/>
<path d="M250.617 7.23438C252.304 7.23438 253.48 8.38202 253.48 10.0529C253.48 11.7297 252.28 12.8834 250.574 12.8834H248.706V15.8148H247.356V7.23438H250.617V7.23438ZM248.706 11.7654H250.255C251.43 11.7654 252.099 11.1411 252.099 10.0589C252.099 8.97671 251.43 8.35828 250.261 8.35828H248.706V11.7654Z" fill="black"/>
<path d="M253.833 14.0369C253.833 12.9427 254.682 12.2708 256.189 12.1875L257.925 12.0865V11.6049C257.925 10.9091 257.449 10.4929 256.653 10.4929C255.9 10.4929 255.43 10.8496 255.315 11.4086H254.086C254.158 10.2787 255.134 9.44629 256.702 9.44629C258.239 9.44629 259.221 10.249 259.221 11.5037V15.8147H257.973V14.786H257.943C257.576 15.4818 256.774 15.9218 255.942 15.9218C254.701 15.9218 253.833 15.1606 253.833 14.0369ZM257.925 13.472V12.9784L256.364 13.0735C255.586 13.1271 255.146 13.466 255.146 14.0012C255.146 14.5482 255.605 14.905 256.304 14.905C257.214 14.905 257.925 14.2865 257.925 13.472Z" fill="black"/>
<path d="M260.399 18.1163V17.0757C260.495 17.0994 260.712 17.0994 260.821 17.0994C261.423 17.0994 261.749 16.8497 261.948 16.2075C261.948 16.1956 262.062 15.827 262.062 15.821L259.772 9.55957H261.182L262.786 14.6496H262.81L264.413 9.55957H265.787L263.412 16.142C262.87 17.6584 262.243 18.146 260.929 18.146C260.821 18.146 260.495 18.1341 260.399 18.1163Z" fill="black"/>
<path d="M313.597 0H282.403C282.273 0 282.143 0 282.013 0.000747416C281.904 0.00151748 281.794 0.00271788 281.685 0.00566224C281.446 0.0120266 281.206 0.0259104 280.97 0.0676751C280.731 0.110165 280.508 0.17947 280.291 0.288593C280.077 0.395745 279.882 0.535897 279.712 0.703137C279.543 0.870377 279.401 1.06296 279.292 1.27389C279.182 1.48822 279.111 1.70798 279.069 1.94426C279.026 2.1767 279.012 2.41399 279.005 2.64907C279.003 2.75697 279.001 2.86487 279.001 2.97274C279 3.10096 279 3.22909 279 3.35753V20.6427C279 20.7712 279 20.8991 279.001 21.0275C279.001 21.1354 279.003 21.2433 279.005 21.3512C279.012 21.5861 279.026 21.8234 279.069 22.0557C279.111 22.2921 279.182 22.5118 279.292 22.7261C279.401 22.9371 279.543 23.1299 279.712 23.2969C279.882 23.4644 280.077 23.6045 280.291 23.7114C280.508 23.8208 280.731 23.8902 280.97 23.9326C281.206 23.9741 281.446 23.9882 281.685 23.9946C281.794 23.9971 281.904 23.9985 282.013 23.999C282.143 24 282.273 24 282.403 24H313.597C313.727 24 313.857 24 313.986 23.999C314.096 23.9985 314.205 23.9971 314.315 23.9946C314.553 23.9882 314.794 23.9741 315.03 23.9326C315.269 23.8902 315.491 23.8208 315.709 23.7114C315.923 23.6045 316.118 23.4644 316.287 23.2969C316.457 23.1299 316.599 22.9371 316.708 22.7261C316.818 22.5118 316.889 22.2921 316.931 22.0557C316.974 21.8234 316.988 21.5861 316.994 21.3512C316.997 21.2433 316.998 21.1354 316.999 21.0275C317 20.8991 317 20.7712 317 20.6427V3.35753C317 3.22909 317 3.10096 316.999 2.97274C316.998 2.86487 316.997 2.75697 316.994 2.64907C316.988 2.41399 316.974 2.1767 316.931 1.94426C316.889 1.70798 316.818 1.48822 316.708 1.27389C316.599 1.06296 316.457 0.870377 316.287 0.703137C316.118 0.535897 315.923 0.395745 315.709 0.288593C315.491 0.17947 315.269 0.110165 315.03 0.0676751C314.794 0.0259104 314.553 0.0120266 314.315 0.00566224C314.205 0.00271788 314.096 0.00151748 313.986 0.000747416C313.857 0 313.727 0 313.597 0Z" fill="white"/>
<path d="M313.597 0.799805L313.981 0.800529C314.085 0.801254 314.189 0.802364 314.293 0.805172C314.475 0.810019 314.688 0.819736 314.886 0.854796C315.058 0.885418 315.203 0.931984 315.342 1.00165C315.479 1.0703 315.604 1.16026 315.714 1.26819C315.824 1.37683 315.915 1.50081 315.985 1.63741C316.056 1.77319 316.103 1.91511 316.133 2.08638C316.169 2.27985 316.179 2.49026 316.184 2.67074C316.186 2.77262 316.188 2.8745 316.188 2.97879C316.189 3.10493 316.189 3.23099 316.189 3.35737V20.6426C316.189 20.7689 316.189 20.8948 316.188 21.0236C316.188 21.1255 316.186 21.2273 316.184 21.3294C316.179 21.5096 316.169 21.7199 316.133 21.9157C316.103 22.0846 316.056 22.2265 315.985 22.363C315.915 22.4992 315.824 22.6231 315.714 22.731C315.604 22.8398 315.479 22.9295 315.34 22.9987C315.203 23.0681 315.058 23.1146 314.888 23.1449C314.685 23.1804 314.464 23.1902 314.297 23.1947C314.192 23.197 314.087 23.1984 313.98 23.1989C313.853 23.1999 313.725 23.1999 313.597 23.1999H282.403C282.402 23.1999 282.4 23.1999 282.398 23.1999C282.272 23.1999 282.146 23.1999 282.017 23.1989C281.913 23.1984 281.808 23.1971 281.707 23.1948C281.536 23.1902 281.315 23.1805 281.114 23.1451C280.942 23.1146 280.798 23.0681 280.658 22.9978C280.521 22.9292 280.396 22.8396 280.286 22.7306C280.176 22.6229 280.085 22.4995 280.015 22.363C279.945 22.2267 279.898 22.0843 279.867 21.9134C279.831 21.718 279.821 21.5085 279.816 21.3296C279.813 21.2271 279.812 21.1246 279.812 21.0227L279.811 20.722L279.811 20.6426V3.35737L279.811 3.27796L279.812 2.97784C279.812 2.87536 279.813 2.77289 279.816 2.6705C279.821 2.49132 279.831 2.28177 279.867 2.08477C279.898 1.91538 279.945 1.77301 280.015 1.636C280.085 1.50059 280.176 1.37697 280.286 1.26853C280.396 1.16044 280.521 1.0706 280.659 1.00129C280.797 0.931961 280.942 0.885418 281.114 0.854864C281.312 0.819713 281.525 0.810019 281.707 0.80515C281.811 0.802364 281.915 0.801254 282.018 0.800552L282.403 0.799805H313.597Z" fill="white"/>
<path d="M297.071 11.7752V15.2762H295.964V6.63086H298.899C299.642 6.63086 300.276 6.87969 300.795 7.37734C301.325 7.875 301.591 8.4826 301.591 9.20015C301.591 9.93506 301.325 10.5427 300.795 11.0345C300.282 11.5264 299.648 11.7694 298.899 11.7694H297.071V11.7752ZM297.071 7.69561V10.7105H298.922C299.36 10.7105 299.729 10.56 300.017 10.2649C300.311 9.96978 300.461 9.611 300.461 9.20593C300.461 8.80665 300.311 8.45367 300.017 8.15855C299.729 7.85185 299.365 7.7014 298.922 7.7014H297.071V7.69561Z" fill="#3C4043"/>
<path d="M304.485 9.16602C305.303 9.16602 305.949 9.38591 306.421 9.8257C306.894 10.2655 307.13 10.8673 307.13 11.6311V15.2768H306.076V14.455H306.029C305.574 15.1321 304.963 15.4677 304.202 15.4677C303.551 15.4677 303.009 15.2768 302.571 14.889C302.133 14.5013 301.914 14.021 301.914 13.4424C301.914 12.829 302.144 12.3429 302.605 11.9841C303.066 11.6196 303.683 11.4402 304.45 11.4402C305.107 11.4402 305.649 11.5617 306.07 11.8047V11.5501C306.07 11.1624 305.92 10.8384 305.614 10.5664C305.309 10.2944 304.951 10.1613 304.542 10.1613C303.925 10.1613 303.435 10.4217 303.078 10.9483L302.104 10.3349C302.64 9.55372 303.435 9.16602 304.485 9.16602ZM303.055 13.4597C303.055 13.7491 303.176 13.9921 303.424 14.1831C303.666 14.374 303.954 14.4724 304.283 14.4724C304.75 14.4724 305.165 14.2988 305.528 13.9516C305.891 13.6044 306.076 13.1993 306.076 12.7306C305.73 12.4586 305.251 12.3198 304.634 12.3198C304.185 12.3198 303.81 12.4297 303.51 12.6438C303.205 12.8695 303.055 13.1415 303.055 13.4597Z" fill="#3C4043"/>
<path d="M313.148 9.35645L309.459 17.8744H308.318L309.689 14.8943L307.257 9.35645H308.462L310.214 13.6039H310.237L311.943 9.35645H313.148Z" fill="#3C4043"/>
<path d="M292.669 12.0695C292.669 11.7073 292.636 11.3607 292.576 11.0273H287.937V12.937L290.609 12.9375C290.501 13.5729 290.152 14.1145 289.617 14.4756V15.7146H291.208C292.136 14.8518 292.669 13.5764 292.669 12.0695Z" fill="#4285F4"/>
<path d="M289.618 14.4754C289.175 14.7751 288.605 14.9505 287.938 14.9505C286.65 14.9505 285.557 14.079 285.165 12.9043H283.525V14.182C284.338 15.8011 286.008 16.9122 287.938 16.9122C289.272 16.9122 290.393 16.4718 291.208 15.7137L289.618 14.4754Z" fill="#34A853"/>
<path d="M285.011 11.9566C285.011 11.6268 285.066 11.3079 285.166 11.0082V9.73047H283.525C283.189 10.4 283 11.1557 283 11.9566C283 12.7575 283.19 13.5132 283.525 14.1827L285.166 12.905C285.066 12.6053 285.011 12.2864 285.011 11.9566Z" fill="#FABB05"/>
<path d="M287.938 8.96169C288.666 8.96169 289.318 9.21341 289.833 9.70528L291.242 8.29159C290.386 7.49129 289.27 7 287.938 7C286.009 7 284.338 8.11104 283.525 9.73016L285.165 11.0079C285.557 9.83316 286.65 8.96169 287.938 8.96169Z" fill="#E94235"/>
<path fill-rule="evenodd" clip-rule="evenodd" d="M143.679 0C142.2 0 141 1.17985 141 2.63492V21.3651C141 22.8204 142.199 24 143.679 24H176.321C177.8 24 179 22.8201 179 21.3651V12.865V2.63492C179 1.17958 177.801 0 176.321 0H143.679Z" fill="#4D4D4D"/>
<path fill-rule="evenodd" clip-rule="evenodd" d="M161.224 7.72266C162.732 7.72266 163.954 8.85224 163.954 10.2476V10.2492C163.954 11.6446 162.732 12.7758 161.224 12.7758C159.717 12.7758 158.495 11.6446 158.495 10.2492V10.2476C158.495 8.85224 159.717 7.72266 161.224 7.72266ZM156.938 7.75522C157.369 7.75522 157.73 7.84071 158.169 8.04695V9.13686C157.753 8.76017 157.392 8.60252 156.914 8.60252C155.976 8.60252 155.238 9.32178 155.238 10.2337C155.238 11.1953 155.953 11.8718 156.961 11.8718C157.415 11.8718 157.769 11.7223 158.169 11.3517V12.4422C157.714 12.6405 157.345 12.7188 156.914 12.7188C155.391 12.7188 154.207 11.6364 154.207 10.2404C154.207 8.85953 155.422 7.75522 156.938 7.75522ZM152.207 7.78525C152.77 7.78525 153.284 7.96348 153.715 8.31192L153.191 8.94655C152.93 8.6761 152.684 8.56201 152.384 8.56201C151.953 8.56201 151.639 8.78931 151.639 9.08839C151.639 9.34491 151.815 9.48067 152.415 9.68635C153.554 10.0717 153.891 10.4133 153.891 11.1678C153.891 12.0873 153.161 12.7272 152.122 12.7272C151.36 12.7272 150.806 12.4497 150.345 11.8232L150.992 11.2469C151.222 11.6594 151.607 11.8803 152.084 11.8803C152.53 11.8803 152.861 11.5952 152.861 11.2104C152.861 11.011 152.761 10.8399 152.561 10.719C152.46 10.6618 152.261 10.5764 151.869 10.4485C150.929 10.1353 150.607 9.80052 150.607 9.14622C150.607 8.36897 151.299 7.78525 152.207 7.78525ZM163.642 7.86805H164.735L166.104 11.0581L167.489 7.86805H168.574L166.358 12.7392H165.819L163.642 7.86805ZM144.284 7.87535H145.753C147.376 7.87535 148.507 8.85171 148.507 10.2533C148.507 10.9522 148.161 11.628 147.576 12.0764C147.084 12.4549 146.522 12.6247 145.745 12.6247H144.284V7.87535ZM148.968 7.87535H149.969V12.6247H148.968V7.87535ZM169.027 7.87535H171.865V8.68009H170.027V9.73426H171.797V10.5386H170.027V11.8206H171.865V12.6247H169.027V7.87535ZM172.527 7.87535H174.011C175.165 7.87535 175.827 8.38841 175.827 9.27758C175.827 10.0047 175.412 10.4819 174.658 10.6239L176.273 12.6247H175.042L173.657 10.7168H173.527V12.6247H172.527V7.87535ZM173.527 8.62339V10.0617H173.819C174.458 10.0617 174.797 9.80487 174.797 9.32745C174.797 8.86525 174.458 8.62339 173.835 8.62339H173.527ZM145.284 8.68009V11.8206H145.553C146.199 11.8206 146.608 11.7059 146.922 11.4432C147.268 11.1579 147.476 10.7023 147.476 10.2465C147.476 9.79147 147.268 9.34948 146.922 9.06416C146.592 8.78728 146.199 8.68009 145.553 8.68009H145.284Z" fill="white"/>
<path fill-rule="evenodd" clip-rule="evenodd" d="M178.999 13.8135C177.73 14.6916 168.229 20.9675 151.778 23.999H176.32C177.799 23.999 178.999 22.8192 178.999 21.3641V13.8135Z" fill="#F47216"/>
<rect x="94" width="39" height="24" rx="2.32268" fill="#2557D6"/>
<path fill-rule="evenodd" clip-rule="evenodd" d="M94.0001 11.2707H95.8734L96.2958 10.2766H97.2414L97.6627 11.2707H101.348V10.5107L101.677 11.274H103.591L103.92 10.4993V11.2707H113.08L113.075 9.63884H113.253C113.377 9.64303 113.413 9.65423 113.413 9.85417V11.2707H118.15V10.8908C118.533 11.0906 119.127 11.2707 119.909 11.2707H121.902L122.329 10.2766H123.274L123.691 11.2707H127.532V10.3264L128.114 11.2707H131.191V5.02832H128.146V5.76556L127.719 5.02832H124.594V5.76556L124.202 5.02832H119.98C119.273 5.02832 118.652 5.12458 118.15 5.39282V5.02832H115.237V5.39282C114.918 5.11634 114.483 5.02832 113.999 5.02832H103.355L102.641 6.64063L101.908 5.02832H98.5552V5.76556L98.1869 5.02832H95.3277L94 7.9963V11.2707H94.0001H94.0001ZM105.825 10.3703H104.701L104.697 6.86489L103.107 10.3703H102.144L100.55 6.86179V10.3703H98.3204L97.8991 9.37198H95.6163L95.1908 10.3703H94L95.9633 5.89451H97.5923L99.4569 10.1322V5.89451H101.246L102.681 8.9308L103.999 5.89451H105.825V10.3703H105.825H105.825ZM97.5244 8.4431L96.774 6.6588L96.0279 8.4431H97.5244ZM110.298 10.3703H106.635V5.89451H110.298V6.82655H107.732V7.63331H110.236V8.55077H107.732V9.44461H110.298V10.3703ZM115.459 7.09993C115.459 7.81354 114.971 8.18222 114.687 8.29292C114.926 8.38202 115.131 8.53943 115.229 8.66984C115.384 8.89246 115.41 9.09131 115.41 9.49105V10.3703H114.305L114.3 9.80587C114.3 9.53654 114.327 9.14923 114.127 8.9339C113.967 8.77649 113.723 8.74234 113.328 8.74234H112.151V10.3703H111.055V5.89451H113.577C114.137 5.89451 114.55 5.90896 114.904 6.10889C115.251 6.30883 115.459 6.6007 115.459 7.09993ZM114.073 7.76455C113.923 7.85378 113.744 7.85675 113.531 7.85675H112.199V6.86261H113.549C113.74 6.86261 113.939 6.87098 114.069 6.94334C114.211 7.00855 114.299 7.14733 114.299 7.33903C114.299 7.53464 114.215 7.69205 114.073 7.76455ZM117.217 10.3703H116.099V5.89451H117.217V10.3703ZM130.204 10.3703H128.65L126.572 7.01096V10.3703H124.339L123.913 9.37198H121.635L121.221 10.3703H119.938C119.405 10.3703 118.731 10.2553 118.348 9.87526C117.963 9.49524 117.763 8.98048 117.763 8.16656C117.763 7.50277 117.882 6.89594 118.354 6.41642C118.708 6.05921 119.263 5.89451 120.019 5.89451H121.08V6.85355H120.041C119.641 6.85355 119.415 6.9116 119.197 7.11869C119.01 7.30715 118.882 7.66342 118.882 8.13254C118.882 8.61206 118.98 8.9578 119.184 9.18365C119.352 9.36078 119.659 9.41451 119.948 9.41451H120.44L121.985 5.89465H123.628L125.484 10.1281V5.89465H127.154L129.081 9.0118V5.89465H130.204V10.3703ZM123.54 8.4431L122.781 6.6588L122.026 8.4431H123.54Z" fill="white"/>
<path fill-rule="evenodd" clip-rule="evenodd" d="M132.998 17.5165C132.731 17.8965 132.212 18.0891 131.51 18.0891H129.393V17.1292H131.501C131.711 17.1292 131.857 17.1023 131.945 17.0183C132.021 16.9491 132.075 16.8485 132.075 16.7263C132.075 16.5959 132.021 16.4924 131.941 16.4303C131.861 16.362 131.745 16.3309 131.554 16.3309C130.525 16.2968 129.241 16.362 129.241 14.9453C129.241 14.2959 129.663 13.6124 130.814 13.6124H132.998V12.7217H130.969C130.356 12.7217 129.911 12.8648 129.596 13.0873V12.7217H126.595C126.115 12.7217 125.552 12.8378 125.285 13.0873V12.7217H119.926V13.0873C119.499 12.787 118.78 12.7217 118.448 12.7217H114.913V13.0873C114.575 12.7684 113.825 12.7217 113.367 12.7217H109.411L108.506 13.6777L107.658 12.7217H101.748V18.9684H107.546L108.479 17.9972L109.358 18.9684L112.932 18.9715V17.502H113.284C113.758 17.5092 114.317 17.4906 114.811 17.2824V18.9683H117.759V17.3402H117.901C118.083 17.3402 118.101 17.3475 118.101 17.5244V18.9681H127.057C127.626 18.9681 128.22 18.8261 128.549 18.5684V18.9681H131.39C131.981 18.9681 132.558 18.8873 132.998 18.6802V17.5165V17.5165ZM115.24 15.1137C115.24 16.3573 114.289 16.6141 113.33 16.6141H111.962V18.1157H109.831L108.481 16.6337L107.078 18.1157H102.736V13.6388H107.145L108.494 15.1063L109.889 13.6388H113.392C114.262 13.6388 115.24 13.8739 115.24 15.1137ZM106.523 17.174H103.827V16.2833H106.234V15.3699H103.827V14.556H106.576L107.775 15.8606L106.523 17.174ZM110.866 17.6866L109.183 15.8631L110.866 14.0974V17.6866ZM113.356 15.696H111.939V14.556H113.369C113.764 14.556 114.039 14.7134 114.039 15.1049C114.039 15.4921 113.777 15.696 113.356 15.696ZM120.778 13.6388H124.438V14.5647H121.87V15.3786H124.375V16.292H121.87V17.1827L124.438 17.1868V18.1157H120.778V13.6388V13.6388ZM119.372 16.0352C119.616 16.1231 119.815 16.2806 119.909 16.4111C120.064 16.6296 120.086 16.8336 120.09 17.2282V18.1157H118.99V17.5556C118.99 17.2863 119.016 16.8875 118.812 16.6793C118.652 16.5189 118.408 16.4806 118.008 16.4806H116.836V18.1157H115.735V13.6388H118.266C118.821 13.6388 119.225 13.6627 119.585 13.8501C119.931 14.0541 120.149 14.3335 120.149 14.8442C120.149 15.5588 119.66 15.9234 119.372 16.0352ZM118.752 15.4692C118.605 15.5542 118.424 15.5615 118.211 15.5615H116.879V14.556H118.229C118.424 14.556 118.619 14.56 118.752 14.6368C118.894 14.7093 118.979 14.848 118.979 15.0395C118.979 15.2311 118.894 15.3854 118.752 15.4692ZM128.649 15.7544C128.863 15.97 128.977 16.2422 128.977 16.7029C128.977 17.666 128.361 18.1156 127.255 18.1156H125.12V17.1556H127.246C127.454 17.1556 127.602 17.1287 127.694 17.0447C127.77 16.9755 127.824 16.8749 127.824 16.7527C127.824 16.6223 127.765 16.5188 127.69 16.4567C127.606 16.3884 127.49 16.3573 127.3 16.3573C126.274 16.3232 124.99 16.3884 124.99 14.9717C124.99 14.3223 125.408 13.6388 126.558 13.6388H128.756V14.5917H126.745C126.545 14.5917 126.416 14.5989 126.305 14.6725C126.185 14.745 126.141 14.8526 126.141 14.9946C126.141 15.1635 126.243 15.2784 126.381 15.3281C126.496 15.3674 126.62 15.3788 126.807 15.3788L127.397 15.3944C127.993 15.4085 128.401 15.509 128.649 15.7544ZM133 14.556H131.002C130.802 14.556 130.67 14.5633 130.558 14.6368C130.442 14.7093 130.398 14.8169 130.398 14.9589C130.398 15.1278 130.496 15.2427 130.638 15.2924C130.753 15.3317 130.878 15.3432 131.06 15.3432L131.654 15.3587C132.254 15.3731 132.654 15.4737 132.898 15.719C132.943 15.7532 132.969 15.7915 133 15.8298V14.556Z" fill="white"/>
<rect x="47" width="39" height="24" rx="2.32268" fill="black"/>
<path fill-rule="evenodd" clip-rule="evenodd" d="M69.5685 12.0002C69.5685 17.052 65.3892 21.1469 60.234 21.1469C55.0789 21.1469 50.9 17.052 50.9 12.0002C50.9 6.94884 55.0789 2.85352 60.234 2.85352C65.3892 2.85352 69.5685 6.94884 69.5685 12.0002Z" fill="#D9222A"/>
<path fill-rule="evenodd" clip-rule="evenodd" d="M72.7656 2.85352C70.3538 2.85352 68.1562 3.75012 66.4996 5.22124C66.1622 5.52103 65.8472 5.84481 65.5571 6.18918H67.4429C67.7008 6.4964 67.9382 6.81955 68.1545 7.15797H64.8455C64.6473 7.46901 64.4672 7.79216 64.3078 8.12655H68.692C68.8417 8.44035 68.9739 8.76328 69.0872 9.09492H63.9126C63.8047 9.41042 63.7139 9.73335 63.6413 10.0635H69.3583C69.4954 10.6877 69.5684 11.3357 69.5684 12.0002C69.5684 13.0159 69.3992 13.9932 69.0872 14.9057H63.9126C64.0257 15.2376 64.1578 15.5607 64.3075 15.8743H68.692C68.5321 16.2087 68.3525 16.5319 68.154 16.8431H64.8455C65.0615 17.1809 65.2994 17.5045 65.5571 17.8111H67.4425C67.1528 18.1561 66.8376 18.4803 66.4998 18.7798C68.1564 20.2508 70.3538 21.1469 72.7656 21.1469C77.9207 21.1469 82.1 17.052 82.1 12.0002C82.1 6.94906 77.9207 2.85352 72.7656 2.85352Z" fill="#EE9F2D"/>
<path fill-rule="evenodd" clip-rule="evenodd" d="M80.8559 17.1598C80.8559 16.9628 81.0149 16.8027 81.2114 16.8027C81.4079 16.8027 81.5669 16.9628 81.5669 17.1598C81.5669 17.3569 81.4079 17.517 81.2114 17.517C81.0149 17.517 80.8559 17.3569 80.8559 17.1598ZM81.2114 17.4313C81.3606 17.4313 81.4818 17.3097 81.4818 17.1598C81.4818 17.0098 81.3606 16.8887 81.2114 16.8887C81.0619 16.8887 80.9413 17.0098 80.9413 17.1598C80.9413 17.3097 81.0619 17.4313 81.2114 17.4313ZM81.1633 17.3169H81.0905V17.0031H81.2224C81.25 17.0031 81.2781 17.0031 81.3024 17.0187C81.3277 17.0359 81.342 17.0662 81.342 17.0975C81.342 17.1327 81.3213 17.1655 81.2878 17.1783L81.3453 17.3169H81.2645L81.2167 17.1927H81.1633V17.3169ZM81.1633 17.1659H81.2049C81.2204 17.1659 81.2367 17.1676 81.2507 17.1577C81.263 17.1474 81.2694 17.1281 81.2694 17.1096C81.2694 17.0935 81.2617 17.075 81.2512 17.0671C81.2381 17.0564 81.2173 17.0588 81.2033 17.0588H81.1633V17.1659Z" fill="black"/>
<path fill-rule="evenodd" clip-rule="evenodd" d="M58.0545 13.0014C57.9482 12.9893 57.9014 12.9861 57.8283 12.9861C57.254 12.9861 56.9632 13.1791 56.9632 13.5602C56.9632 13.7953 57.1051 13.9447 57.3265 13.9447C57.7393 13.9447 58.0368 13.5596 58.0545 13.0014ZM58.7914 14.6827H57.9518L57.9711 14.2916C57.715 14.6008 57.3733 14.7477 56.909 14.7477C56.3598 14.7477 55.9832 14.3273 55.9832 13.7169C55.9832 12.7984 56.6382 12.2626 57.7625 12.2626C57.8773 12.2626 58.0246 12.2728 58.1754 12.2916C58.2069 12.1672 58.2151 12.1139 58.2151 12.0471C58.2151 11.797 58.0385 11.7038 57.5651 11.7038C57.0694 11.6982 56.6605 11.8195 56.4926 11.8736C56.5032 11.811 56.633 11.0248 56.633 11.0248C57.138 10.8798 57.4711 10.8252 57.8459 10.8252C58.716 10.8252 59.1769 11.208 59.176 11.9316C59.1777 12.1254 59.145 12.3647 59.0939 12.6791C59.0059 13.2258 58.8172 14.3972 58.7914 14.6827Z" fill="black"/>
<path fill-rule="evenodd" clip-rule="evenodd" d="M55.5592 14.6827H54.5458L55.1263 11.116L53.8302 14.6827H53.1397L53.0543 11.1364L52.4442 14.6827H51.4956L52.288 10.043H53.745L53.8334 12.64L54.7222 10.043H56.3429L55.5592 14.6827Z" fill="black"/>
<path fill-rule="evenodd" clip-rule="evenodd" d="M74.0179 13.0014C73.912 12.9893 73.8649 12.9861 73.7921 12.9861C73.218 12.9861 72.9272 13.1791 72.9272 13.5602C72.9272 13.7953 73.0689 13.9447 73.2903 13.9447C73.7031 13.9447 74.0008 13.5596 74.0179 13.0014ZM74.7554 14.6827H73.9159L73.9349 14.2916C73.6788 14.6008 73.3369 14.7477 72.873 14.7477C72.3236 14.7477 71.9474 14.3273 71.9474 13.7169C71.9474 12.7984 72.602 12.2626 73.7265 12.2626C73.8413 12.2626 73.9884 12.2728 74.139 12.2916C74.1704 12.1672 74.1787 12.1139 74.1787 12.0471C74.1787 11.797 74.0023 11.7038 73.5289 11.7038C73.0332 11.6982 72.6247 11.8195 72.4562 11.8736C72.4668 11.811 72.597 11.0248 72.597 11.0248C73.1021 10.8798 73.4349 10.8252 73.8093 10.8252C74.6798 10.8252 75.1407 11.208 75.1398 11.9316C75.1415 12.1254 75.1088 12.3647 75.0577 12.6791C74.9702 13.2258 74.781 14.3972 74.7554 14.6827Z" fill="black"/>
<path fill-rule="evenodd" clip-rule="evenodd" d="M63.2951 14.6259C63.0177 14.7115 62.8015 14.7482 62.5671 14.7482C62.049 14.7482 61.7663 14.4565 61.7663 13.9193C61.7589 13.7527 61.8408 13.314 61.9052 12.9136C61.9637 12.5612 62.3446 10.3389 62.3446 10.3389H63.3518L63.2342 10.91H63.8426L63.7052 11.8168H63.0947C62.9777 12.5344 62.811 13.4283 62.8091 13.5467C62.8091 13.7412 62.915 13.8261 63.156 13.8261C63.2715 13.8261 63.3609 13.8147 63.4292 13.7905L63.2951 14.6259Z" fill="black"/>
<path fill-rule="evenodd" clip-rule="evenodd" d="M66.3834 14.5948C66.0374 14.6984 65.7035 14.7485 65.3497 14.7477C64.2222 14.7466 63.6343 14.1696 63.6343 13.0645C63.6343 11.7747 64.3821 10.8252 65.3971 10.8252C66.2276 10.8252 66.758 11.3568 66.758 12.1906C66.758 12.4672 66.7216 12.7373 66.6339 13.1186H64.628C64.5602 13.666 64.9177 13.894 65.5035 13.894C65.8641 13.894 66.1893 13.8212 66.5509 13.6564L66.3834 14.5948ZM65.8173 12.3579C65.8229 12.2793 65.9241 11.6844 65.3486 11.6844C65.0277 11.6844 64.7983 11.9241 64.7049 12.3579H65.8173Z" fill="black"/>
<path fill-rule="evenodd" clip-rule="evenodd" d="M59.3992 12.1023C59.3992 12.5795 59.6354 12.9086 60.171 13.1558C60.5813 13.3447 60.6448 13.4008 60.6448 13.5721C60.6448 13.8074 60.4639 13.9135 60.0628 13.9135C59.7606 13.9135 59.4794 13.8672 59.155 13.7647C59.155 13.7647 59.0218 14.5963 59.0157 14.636C59.246 14.6853 59.4514 14.7309 60.0702 14.7477C61.1395 14.7477 61.6332 14.3488 61.6332 13.4866C61.6332 12.9681 61.4265 12.6638 60.9189 12.4352C60.494 12.2441 60.4453 12.2014 60.4453 12.0252C60.4453 11.8212 60.6136 11.7171 60.9412 11.7171C61.1401 11.7171 61.4118 11.7379 61.6692 11.7738L61.8135 10.8987C61.5511 10.8579 61.1533 10.8252 60.9217 10.8252C59.7881 10.8252 59.3957 11.4055 59.3992 12.1023Z" fill="black"/>
<path fill-rule="evenodd" clip-rule="evenodd" d="M71.3117 10.924C71.5932 10.924 71.8555 10.9964 72.2172 11.1748L72.3829 10.1677C72.2345 10.1106 71.7119 9.77539 71.2692 9.77539C70.5911 9.77539 70.0178 10.1051 69.6146 10.6493C69.0265 10.4584 68.7847 10.8442 68.4883 11.2285L68.2251 11.2886C68.245 11.162 68.263 11.0363 68.2569 10.9091H67.3263C67.1992 12.0769 66.9738 13.2597 66.7975 14.4289L66.7515 14.6824H67.7653C67.9345 13.6051 68.0273 12.9153 68.0836 12.4484L68.4654 12.2404C68.5223 12.0325 68.7009 11.9622 69.059 11.9707C69.0122 12.217 68.9871 12.476 68.9871 12.7444C68.9871 13.9788 69.6668 14.7474 70.7577 14.7474C71.0387 14.7474 71.2799 14.7111 71.6532 14.6119L71.8315 13.5542C71.4957 13.7162 71.2201 13.7924 70.9705 13.7924C70.3813 13.7924 70.0249 13.3663 70.0249 12.662C70.0249 11.6404 70.5551 10.924 71.3117 10.924Z" fill="black"/>
<path fill-rule="evenodd" clip-rule="evenodd" d="M55.8508 14.4076H54.8372L55.4181 10.8414L54.122 14.4076H53.4313L53.3459 10.8618L52.7358 14.4076H51.7872L52.5796 9.76855H54.0367L54.0776 12.6405L55.0606 9.76855H56.6345L55.8508 14.4076Z" fill="white"/>
<path fill-rule="evenodd" clip-rule="evenodd" d="M79.8911 10.043L79.6664 11.3835C79.3893 11.0262 79.0916 10.7676 78.6986 10.7676C78.1872 10.7676 77.7218 11.1474 77.4172 11.7065C76.993 11.6203 76.5542 11.474 76.5542 11.474L76.554 11.4774C76.5882 11.1648 76.6019 10.9742 76.5988 10.9094H75.668C75.5413 12.0772 75.316 13.26 75.1398 14.4292L75.0934 14.6827H76.107C76.2439 13.8115 76.3488 13.0882 76.4259 12.5145C76.7722 12.2079 76.9455 11.9404 77.2954 11.9583C77.1405 12.3253 77.0497 12.7483 77.0497 13.182C77.0497 14.1253 77.5368 14.7476 78.2735 14.7476C78.6448 14.7476 78.9297 14.6222 79.2077 14.3313L79.1603 14.682H80.1188L80.8906 10.043H79.8911ZM78.6238 13.8107C78.2789 13.8107 78.1047 13.5606 78.1047 13.067C78.1047 12.3253 78.4308 11.7994 78.8905 11.7994C79.2387 11.7994 79.4272 12.0595 79.4272 12.5387C79.4272 13.2867 79.0959 13.8107 78.6238 13.8107Z" fill="black"/>
<path fill-rule="evenodd" clip-rule="evenodd" d="M58.346 12.7262C58.2398 12.7141 58.1928 12.711 58.12 12.711C57.5456 12.711 57.2551 12.9039 57.2551 13.285C57.2551 13.5197 57.397 13.6695 57.618 13.6695C58.0312 13.6695 58.3287 13.2844 58.346 12.7262ZM59.0833 14.4069H58.2437L58.2628 14.0165C58.0069 14.325 57.6648 14.4725 57.2009 14.4725C56.6514 14.4725 56.2751 14.0521 56.2751 13.4417C56.2751 12.5228 56.9299 11.9874 58.0544 11.9874C58.1692 11.9874 58.3165 11.9976 58.4671 12.0165C58.4985 11.8921 58.5068 11.8388 58.5068 11.7715C58.5068 11.5214 58.3304 11.4286 57.857 11.4286C57.361 11.4231 56.9524 11.5443 56.7843 11.5978C56.7949 11.5354 56.9247 10.75 56.9247 10.75C57.4295 10.6044 57.7629 10.5498 58.1373 10.5498C59.0077 10.5498 59.4688 10.9328 59.4679 11.6557C59.4694 11.8504 59.4365 12.0895 59.3856 12.4035C59.2978 12.95 59.1089 14.122 59.0833 14.4069Z" fill="white"/>
<path fill-rule="evenodd" clip-rule="evenodd" d="M72.6748 9.89332L72.5088 10.9005C72.1474 10.7224 71.8848 10.6498 71.6036 10.6498C70.847 10.6498 70.3166 11.3661 70.3166 12.3878C70.3166 13.092 70.6732 13.5179 71.2621 13.5179C71.5117 13.5179 71.7871 13.4419 72.1229 13.2797L71.945 14.3371C71.5715 14.4368 71.3306 14.4732 71.0493 14.4732C69.9586 14.4732 69.2787 13.7046 69.2787 12.4702C69.2787 10.8116 70.2178 9.65234 71.5609 9.65234C72.0033 9.65234 72.5261 9.83621 72.6748 9.89332Z" fill="white"/>
<path fill-rule="evenodd" clip-rule="evenodd" d="M74.3097 12.7262C74.2036 12.7141 74.1568 12.711 74.0837 12.711C73.5096 12.711 73.2188 12.9039 73.2188 13.285C73.2188 13.5197 73.3607 13.6695 73.5819 13.6695C73.9947 13.6695 74.2924 13.2844 74.3097 12.7262ZM75.047 14.4069H74.2072L74.2265 14.0165C73.9704 14.325 73.6285 14.4725 73.1646 14.4725C72.6154 14.4725 72.2388 14.0521 72.2388 13.4417C72.2388 12.5228 72.8938 11.9874 74.0179 11.9874C74.1329 11.9874 74.28 11.9976 74.4308 12.0165C74.462 11.8921 74.4705 11.8388 74.4705 11.7715C74.4705 11.5214 74.2941 11.4286 73.8207 11.4286C73.325 11.4231 72.9161 11.5443 72.748 11.5978C72.7586 11.5354 72.8886 10.75 72.8886 10.75C73.3934 10.6044 73.7267 10.5498 74.1011 10.5498C74.9716 10.5498 75.4325 10.9328 75.4314 11.6557C75.4331 11.8504 75.4004 12.0895 75.3493 12.4035C75.2618 12.95 75.0724 14.122 75.047 14.4069Z" fill="white"/>
<path fill-rule="evenodd" clip-rule="evenodd" d="M63.5867 14.3503C63.3091 14.4359 63.0929 14.473 62.8587 14.473C62.3406 14.473 62.0579 14.1813 62.0579 13.6442C62.0507 13.4771 62.1326 13.0388 62.197 12.6384C62.2553 12.2856 62.6362 10.0635 62.6362 10.0635H63.6432L63.5258 10.6348H64.0428L63.9052 11.5412H63.3865C63.2695 12.2592 63.1024 13.1524 63.1007 13.2711C63.1007 13.4662 63.2069 13.5505 63.4476 13.5505C63.5631 13.5505 63.6523 13.5395 63.7208 13.5153L63.5867 14.3503Z" fill="white"/>
<path fill-rule="evenodd" clip-rule="evenodd" d="M66.6751 14.3197C66.3293 14.4233 65.995 14.4732 65.6414 14.4725C64.5138 14.4715 63.926 13.8944 63.926 12.7893C63.926 11.4991 64.6737 10.5498 65.6888 10.5498C66.5193 10.5498 67.0497 11.0812 67.0497 11.9154C67.0497 12.1923 67.0133 12.4623 66.9258 12.8434H64.9199C64.8521 13.3908 65.2096 13.619 65.7954 13.619C66.1557 13.619 66.4812 13.546 66.8426 13.3808L66.6751 14.3197ZM66.1087 12.0821C66.1148 12.0037 66.2158 11.4086 65.6401 11.4086C65.3194 11.4086 65.09 11.649 64.9966 12.0821H66.1087Z" fill="white"/>
<path fill-rule="evenodd" clip-rule="evenodd" d="M59.6908 11.8271C59.6908 12.3044 59.927 12.633 60.4626 12.8806C60.873 13.0695 60.9365 13.1258 60.9365 13.2969C60.9365 13.5322 60.7553 13.6383 60.3547 13.6383C60.0522 13.6383 59.771 13.5921 59.4464 13.4895C59.4464 13.4895 59.3136 14.3211 59.3076 14.3608C59.5374 14.4101 59.7431 14.4551 60.3619 14.4725C61.4313 14.4725 61.9249 14.0736 61.9249 13.2116C61.9249 12.6929 61.7184 12.3887 61.2105 12.16C60.7859 11.9685 60.7367 11.9265 60.7367 11.75C60.7367 11.5462 60.9055 11.4413 61.2329 11.4413C61.4315 11.4413 61.7032 11.4628 61.9611 11.4986L62.1052 10.6233C61.843 10.5825 61.4452 10.5498 61.2136 10.5498C60.0798 10.5498 59.6876 11.1296 59.6908 11.8271Z" fill="white"/>
<path fill-rule="evenodd" clip-rule="evenodd" d="M80.4104 14.4076H79.4517L79.4993 14.0565C79.2214 14.3477 78.9364 14.4732 78.5651 14.4732C77.8284 14.4732 77.3416 13.8509 77.3416 12.9076C77.3416 11.6526 78.0966 10.5947 78.9904 10.5947C79.3834 10.5947 79.6809 10.752 79.9578 11.1091L80.1827 9.76855H81.1822L80.4104 14.4076ZM78.9156 13.5359C79.3875 13.5359 79.719 13.0119 79.719 12.2643C79.719 11.7851 79.5303 11.525 79.1821 11.525C78.7226 11.525 78.3961 12.0507 78.3961 12.7925C78.3961 13.2862 78.5707 13.5359 78.9156 13.5359Z" fill="white"/>
<path fill-rule="evenodd" clip-rule="evenodd" d="M75.9599 10.6345C75.8329 11.8022 75.6076 12.985 75.4314 14.1536L75.3851 14.4071H76.3986C76.7611 12.1001 76.8489 11.6495 77.4172 11.706C77.5078 11.2338 77.6763 10.8202 77.802 10.6115C77.3775 10.5249 77.1405 10.7599 76.8302 11.2064C76.8547 11.0134 76.8996 10.826 76.8907 10.6345H75.9599Z" fill="white"/>
<path fill-rule="evenodd" clip-rule="evenodd" d="M67.618 10.6345C67.4908 11.8022 67.2655 12.985 67.0894 14.1536L67.0432 14.4071H68.0572C68.4193 12.1001 68.5068 11.6495 69.0749 11.706C69.1659 11.2338 69.3345 10.8202 69.4597 10.6115C69.0357 10.5249 68.7984 10.7599 68.4884 11.2064C68.5129 11.0134 68.5573 10.826 68.5488 10.6345H67.618Z" fill="white"/>
<rect width="39" height="24" rx="2.34425" fill="#0E4595"/>
<path fill-rule="evenodd" clip-rule="evenodd" d="M14.4663 17.0308L16.2011 7.05566H18.9757L17.2398 17.0308H14.4663Z" fill="white"/>
<path fill-rule="evenodd" clip-rule="evenodd" d="M27.264 7.27052C26.7142 7.06843 25.8529 6.85156 24.7772 6.85156C22.0355 6.85156 20.1043 8.20448 20.0878 10.1435C20.0724 11.5768 21.4666 12.3764 22.519 12.8535C23.599 13.3425 23.9621 13.6543 23.957 14.0909C23.9501 14.7595 23.0945 15.065 22.297 15.065C21.1864 15.065 20.5964 14.9138 19.6852 14.5414L19.3277 14.3828L18.9383 16.6159C19.5863 16.8943 20.7847 17.1356 22.029 17.1481C24.9457 17.1481 26.8391 15.8106 26.8606 13.7401C26.8711 12.6053 26.1318 11.7418 24.5311 11.0299C23.5612 10.5684 22.9673 10.2605 22.9736 9.79322C22.9736 9.37859 23.4763 8.93523 24.5625 8.93523C25.4699 8.92142 26.1271 9.11531 26.6392 9.3174L26.8879 9.43251L27.264 7.27052Z" fill="white"/>
<path fill-rule="evenodd" clip-rule="evenodd" d="M34.404 7.05566H32.26C31.5958 7.05566 31.0987 7.23329 30.807 7.88287L26.6863 17.0244H29.5999C29.5999 17.0244 30.0763 15.7953 30.1841 15.5254C30.5025 15.5254 33.3329 15.5297 33.7375 15.5297C33.8205 15.8789 34.0751 17.0244 34.0751 17.0244H36.6497L34.404 7.05566ZM31.0023 13.4968C31.2318 12.9221 32.1077 10.7084 32.1077 10.7084C32.0914 10.7349 32.3355 10.1308 32.4756 9.7563L32.6632 10.6163C32.6632 10.6163 33.1945 12.9974 33.3055 13.4967H31.0023V13.4968Z" fill="white"/>
<path fill-rule="evenodd" clip-rule="evenodd" d="M12.1109 7.05566L9.39445 13.858L9.10502 12.4756C8.59932 10.882 7.02372 9.15554 5.26227 8.29118L7.74615 17.0149L10.6818 17.0116L15.05 7.05566H12.1109Z" fill="white"/>
<path fill-rule="evenodd" clip-rule="evenodd" d="M6.85982 7.05566H2.38569L2.35028 7.26321C5.83111 8.08889 8.13435 10.0843 9.09042 12.4818L8.11755 7.8978C7.94959 7.26616 7.46245 7.07768 6.85982 7.05566Z" fill="#F2AE14"/>
</svg>
