<?xml version="1.0" standalone="no"?>
<!DOCTYPE svg PUBLIC "-//W3C//DTD SVG 20010904//EN"
 "http://www.w3.org/TR/2001/REC-SVG-20010904/DTD/svg10.dtd">
<svg version="1.0" xmlns="http://www.w3.org/2000/svg"
 width="1376.000000pt" height="1376.000000pt" viewBox="0 0 1376.000000 1376.000000"
 preserveAspectRatio="xMidYMid meet">
<metadata>
Created by potrace 1.14, written by Peter Selinger 2001-2017
</metadata>
<g transform="translate(0.000000,1376.000000) scale(0.100000,-0.100000)"
fill="#000000" stroke="none">
<path d="M6538 13755 c-2 -2 -61 -6 -133 -9 -71 -3 -150 -8 -175 -11 -25 -2
-76 -7 -115 -10 -131 -12 -150 -14 -195 -19 -65 -7 -141 -17 -170 -22 -14 -3
-41 -7 -60 -9 -19 -2 -48 -6 -65 -9 -16 -3 -50 -8 -75 -11 -25 -3 -52 -7 -60
-10 -8 -2 -28 -7 -45 -10 -28 -4 -42 -7 -105 -20 -14 -2 -38 -7 -55 -11 -61
-12 -71 -14 -135 -29 -80 -19 -95 -23 -95 -25 0 -2 -27 -10 -61 -16 -28 -5
-36 -17 -97 -143 -37 -75 -67 -142 -67 -149 0 -6 -4 -12 -10 -12 -5 0 -12 -11
-16 -25 -3 -13 -11 -29 -18 -34 -10 -9 -90 -27 -256 -58 -13 -2 -56 -11 -95
-19 -38 -8 -85 -17 -104 -20 -18 -2 -36 -6 -40 -9 -4 -2 -23 -7 -42 -10 -45
-9 -63 -13 -66 -15 -4 -3 -7 -4 -58 -14 -78 -15 -442 -115 -549 -150 -61 -20
-116 -36 -123 -36 -7 0 -13 -4 -13 -8 0 -5 -7 -9 -15 -9 -37 0 -207 -83 -283
-138 l-63 -46 4 -3572 c2 -1965 6 -3592 9 -3617 3 -25 9 -88 13 -140 10 -134
13 -165 15 -165 1 0 3 -18 5 -40 2 -22 7 -67 11 -100 4 -33 8 -71 9 -85 1 -14
5 -38 8 -55 3 -16 9 -48 12 -70 3 -22 8 -51 10 -65 2 -14 9 -52 14 -85 6 -33
13 -73 17 -90 6 -31 8 -41 19 -110 4 -22 9 -47 12 -55 3 -8 7 -24 9 -35 2 -16
27 -120 38 -160 1 -5 8 -37 15 -70 7 -33 18 -66 24 -73 5 -7 7 -15 4 -18 -3
-4 0 -23 7 -43 13 -36 44 -136 51 -169 6 -23 83 -252 94 -277 4 -11 18 -47 31
-80 25 -70 32 -87 54 -137 9 -20 16 -39 16 -43 0 -4 13 -34 28 -68 16 -34 42
-91 57 -127 43 -97 195 -393 255 -495 29 -49 58 -100 64 -112 6 -13 14 -23 19
-23 4 0 7 -5 7 -11 0 -10 205 -325 244 -374 9 -11 48 -63 87 -115 79 -104 182
-234 211 -265 10 -11 29 -32 41 -46 183 -214 541 -566 702 -690 17 -13 35 -28
40 -34 8 -9 82 -69 120 -97 6 -4 24 -18 40 -32 28 -22 279 -205 321 -234 46
-31 252 -160 284 -178 19 -10 37 -21 40 -25 5 -5 81 -48 180 -102 110 -60 441
-220 448 -217 1 1 26 -8 56 -19 29 -11 59 -18 67 -17 54 11 518 223 539 247 3
3 34 20 70 38 36 19 68 39 72 45 4 6 8 7 8 2 0 -5 8 -2 18 6 9 8 51 35 92 59
41 24 77 46 80 49 3 4 12 10 20 14 25 12 55 30 70 44 13 11 53 37 209 141 20
13 38 27 41 31 3 3 28 21 55 40 28 19 52 36 55 40 3 3 23 19 45 36 219 163
585 500 795 733 41 46 89 98 105 116 17 18 37 42 45 52 18 21 141 174 153 188
17 22 93 123 112 149 11 16 26 34 33 41 6 8 12 18 12 23 0 6 3 12 8 14 10 5
52 66 52 77 0 5 4 11 8 13 11 4 92 124 92 137 0 5 4 11 9 13 5 1 17 17 27 35
11 18 48 81 84 140 36 59 64 111 62 115 -1 5 1 8 6 8 4 0 13 15 21 33 8 17 17
34 20 37 3 3 35 64 71 135 36 72 69 133 73 136 5 3 8 8 7 10 -2 6 16 52 46
117 15 31 35 75 45 97 10 22 28 65 40 95 11 30 26 66 32 80 6 14 11 28 12 33
2 4 4 9 5 12 1 3 3 8 5 13 1 4 7 21 14 37 7 17 28 75 46 130 18 55 37 111 43
125 10 25 53 169 68 225 10 41 11 45 14 48 1 1 3 9 5 17 8 28 27 105 30 120 2
8 13 51 24 95 11 44 22 91 25 105 3 14 7 36 10 50 3 14 8 36 11 50 7 33 12 60
19 101 3 19 8 45 11 59 8 39 14 72 20 112 10 71 15 103 19 123 2 11 7 47 10
80 4 33 9 71 11 85 10 70 20 170 31 310 3 36 8 92 11 125 8 78 16 7163 8 7193
-3 12 -10 22 -15 22 -5 0 -30 15 -55 34 -38 29 -108 67 -200 107 -39 17 -345
117 -345 113 0 -3 -8 0 -19 5 -10 6 -32 13 -50 16 -17 3 -50 12 -74 19 -23 8
-82 24 -132 35 -49 12 -106 26 -125 31 -58 15 -94 24 -110 26 -21 4 -58 12
-78 18 -17 5 -64 16 -92 20 -8 2 -41 8 -72 15 -32 7 -70 14 -85 16 -16 2 -28
4 -28 5 0 2 -21 6 -69 14 -21 4 -48 8 -60 11 -12 3 -34 7 -51 10 -26 4 -81 53
-71 63 2 2 -27 66 -65 143 -38 76 -69 143 -69 148 0 11 -30 22 -177 60 -61 16
-114 26 -117 23 -3 -3 -6 -1 -6 4 0 5 -10 10 -23 11 -12 1 -60 8 -107 17 -47
9 -98 18 -115 21 -16 3 -41 8 -55 10 -14 3 -45 7 -70 10 -25 3 -56 8 -70 10
-22 5 -68 11 -140 20 -14 1 -50 6 -80 9 -77 10 -146 17 -210 21 -30 3 -80 7
-110 10 -30 3 -89 7 -130 10 -84 6 -857 15 -862 10z"/>
</g>
</svg>
