<?xml version="1.0" encoding="UTF-8"?>
<svg width="20px" height="20px" viewBox="0 0 20 20" version="1.1" xmlns="http://www.w3.org/2000/svg" xmlns:xlink="http://www.w3.org/1999/xlink">
    <title>Combined Shape</title>
    <g id="web" stroke="none" stroke-width="1" fill="none" fill-rule="evenodd">
        <g id="faceit-landing-page-real-content" transform="translate(-1083.000000, -953.000000)" fill="#F6BC25">
            <g id="section-calculator" transform="translate(224.000000, 832.000000)">
                <g id="icon" transform="translate(848.000000, 112.000000)">
                    <path d="M20.0003925,11 C22.2573492,11 24.323005,11.8353769 25.9044766,13.2132003 L26.8682895,13.2130357 L26.8682895,13.8922242 L27.5553032,13.8922242 L27.5553032,13.2130357 L28.2184918,13.2130357 L28.2184918,14.6437561 L27.6306952,14.6437561 L27.6306952,15.210554 L27.6165324,15.2103862 C28.492381,16.5982296 28.9997218,18.2408551 29,19.999686 C28.999215,24.9618847 24.9620769,29 20.0003925,29 C15.0380801,29 11,24.9618847 11,19.999686 C11,15.0373304 15.0380801,11 20.0003925,11 Z M20.0003827,14 C18.3985967,14 16.8918798,14.6243111 15.757326,15.7575015 C14.62415,16.8913043 14,18.3980404 14,19.9998469 C14,21.6013472 14.62415,23.1080833 15.757326,24.2426516 C16.8911144,25.3750765 18.3978312,25.9993876 20.0003827,26 C21.6020157,25.9993876 23.1087325,25.3750765 24.2432863,24.2418861 C25.3750845,23.1080833 25.9993876,21.6013472 26,19.9998469 C25.9996611,19.1134583 25.808338,18.2561817 25.4456163,17.4749975 L25.1177915,17.475969 L25.1177915,18.2630267 L24.5451712,18.2630267 L24.5451712,18.9422152 L24.0004558,18.9422152 L24.0004558,19.6952005 C22.9800527,21.1486897 22.1184298,22.9183585 21.5241058,24.4932814 C21.2445679,25.238677 19.8527531,25.124833 19.5422098,24.3930017 C18.9552291,23.0050737 18.3471975,21.2652789 16.4163788,19.1640899 C15.5758068,18.3058191 16.1857967,17.7603368 16.6916738,17.9111599 C17.6301575,18.214098 18.8215797,19.0516992 20.3565087,21.1649993 C20.7817719,20.1155352 22.1902317,17.5378162 22.7520817,16.7108727 L22.7520817,16.7108727 L23.2524104,16.7108727 L23.2524104,16.0345908 L23.7072103,16.0345908 L23.7072103,15.3612156 L23.8056099,15.3605745 C22.7343519,14.4795668 21.4035872,14 20.0003827,14 Z M27.5551401,12.5390146 L27.5551401,13.2130357 L26.8681263,13.2130357 L26.8681263,12.5390146 L27.5551401,12.5390146 Z M28.8996309,12.5390146 L28.8996309,13.2130357 L28.2184918,13.2130357 L28.2184918,12.5390146 L28.8996309,12.5390146 Z M29.6633421,11.8599876 L29.6633421,12.5390146 L28.8994677,12.5390146 L28.8994677,11.8599876 L29.6633421,11.8599876 Z M26.8681263,11.8932526 L26.8681263,12.5390146 L26.1840499,12.5390146 L26.1840499,11.8932526 L26.8681263,11.8932526 Z M29.5491118,10.4384715 L29.5491118,11.1551236 L28.8996309,11.1551236 L28.8996309,11.8598261 L28.2184918,11.8598261 L28.2183286,12.5390146 L27.5551401,12.5390146 L27.5551401,11.1552851 L28.2183286,11.1552851 L28.2184918,10.4384715 L29.5491118,10.4384715 Z M31,10.4384715 L31,11.160291 L30.270721,11.160291 L30.270721,10.4384715 L31,10.4384715 Z M30.270721,9.7231113 L30.270721,10.4384715 L29.5491118,10.4384715 L29.5491118,9.7231113 L30.270721,9.7231113 Z M31,9 L31,9.72327278 L30.270721,9.72327278 L30.270721,9 L31,9 Z" id="Combined-Shape"></path>
                </g>
            </g>
        </g>
    </g>
</svg>