<?xml version="1.0" encoding="utf-8"?>
<!-- Generator: Adobe Illustrator 26.0.2, SVG Export Plug-In . SVG Version: 6.00 Build 0)  -->
<svg version="1.1" id="Layer_1" xmlns="http://www.w3.org/2000/svg" xmlns:xlink="http://www.w3.org/1999/xlink" x="0px" y="0px"
	 viewBox="0 0 24 24" style="enable-background:new 0 0 24 24;" xml:space="preserve">
<style type="text/css">
	.st0{fill:none;}
	.st1{fill:#979AAE;}
</style>
<g>
	<rect class="st0" width="24" height="24"/>
	<g>
		<path class="st1" d="M5.26,18.29c0.12,0.04,0.23,0.07,0.37,0.06c0.12,0,0.24-0.02,0.35-0.06l4.29-1.43
			c0.17-0.05,0.33-0.15,0.45-0.28L20.74,6.56c0.45-0.45,0.45-1.17,0-1.62l-2.86-2.86c-0.22-0.22-0.5-0.34-0.81-0.34c0,0,0,0,0,0
			c-0.31,0-0.59,0.12-0.81,0.34L6.24,12.1c-0.13,0.13-0.22,0.28-0.28,0.45l-1.43,4.29C4.34,17.44,4.66,18.09,5.26,18.29z M7.42,15.4
			l0.62-1.87l9.02-9.02l1.25,1.25l-9.02,9.02L7.42,15.4z"/>
		<rect x="2" y="20" class="st1" width="20" height="2"/>
	</g>
</g>
</svg>
