<?xml version="1.0" encoding="utf-8"?>
<!-- Generator: Adobe Illustrator 26.0.2, SVG Export Plug-In . SVG Version: 6.00 Build 0)  -->
<svg version="1.1" id="Layer_1" xmlns="http://www.w3.org/2000/svg" xmlns:xlink="http://www.w3.org/1999/xlink" x="0px" y="0px"
	 viewBox="0 0 24 24" style="enable-background:new 0 0 24 24;" xml:space="preserve">
<style type="text/css">
	.st0{fill:none;}
	.st1{fill:#979AAE;}
</style>
<g>
	<rect class="st0" width="24" height="24"/>
	<g>
		<path class="st1" d="M21.13,13.96c-0.11-0.57-0.48-1.01-1.03-1.25l0,0l-0.08-0.03c-0.01,0-0.02-0.01-0.02-0.01
			c-0.04-0.01-0.07-0.03-0.1-0.04l-0.29-0.1l0,0.01c-0.06-0.02-0.1-0.02-0.14-0.02c-1.01-0.23-2.07-0.08-2.98,0.4l-1.41,0.63
			c-0.24-0.74-0.87-1.25-1.62-1.27l-2.47-0.03c-2.1-0.57-3.47,0.19-4.25,0.92c-0.09,0.09-0.18,0.18-0.27,0.28
			c-0.27-0.15-0.62-0.16-0.89-0.01l-2.27,1.25c-0.4,0.22-0.58,0.71-0.41,1.13l2.22,5.61c0.1,0.24,0.29,0.43,0.54,0.52
			C5.76,21.98,5.86,22,5.97,22c0.15,0,0.3-0.04,0.43-0.11l2.27-1.25c0.21-0.12,0.36-0.31,0.43-0.53h3.18c0.59,0,1.18-0.16,1.7-0.45
			c6.4-3.67,6.43-3.7,6.45-3.72C21,15.43,21.27,14.65,21.13,13.96z M7.09,19.43l-0.66,0.36l-1.54-3.9l0.66-0.36L7.09,19.43z
			 M13.34,14.36h-2.69v1.82h2.77c0.36,0,0.7-0.12,0.95-0.31l2.89-1.3l0.06-0.03c0.63-0.34,1.39-0.4,2.05-0.19
			c0,0.03-0.04,0.12-0.09,0.18l-6.19,3.54c-0.24,0.14-0.51,0.21-0.79,0.21H8.6l-1.19-3.02c0.11-0.2,0.3-0.5,0.58-0.77
			c0.66-0.62,1.54-0.78,2.61-0.46c0.08,0.02,0.16,0.04,0.25,0.04l2.49,0.03c0.01,0.03,0.03,0.07,0.03,0.13
			C13.37,14.29,13.35,14.33,13.34,14.36z"/>
		<path class="st1" d="M15.41,12.1c2.78,0,5.05-2.27,5.05-5.05C20.46,4.27,18.2,2,15.41,2c-2.78,0-5.05,2.27-5.05,5.05
			C10.36,9.84,12.63,12.1,15.41,12.1z M12.19,7.05c0-1.78,1.45-3.23,3.23-3.23c1.78,0,3.23,1.45,3.23,3.23s-1.45,3.23-3.23,3.23
			C13.64,10.28,12.19,8.83,12.19,7.05z"/>
		<path class="st1" d="M15.31,8.22c-0.34,0-0.74-0.2-1.02-0.41l-0.34,0.95c0.28,0.22,0.61,0.37,0.98,0.42V9.8h0.96V9.12
			c0.58-0.19,0.96-0.67,0.96-1.25c0-0.81-0.6-1.15-1.12-1.36c-0.53-0.22-0.57-0.31-0.57-0.42c0-0.07,0.03-0.23,0.35-0.23
			c0.29,0,0.66,0.16,0.91,0.33l0.36-0.94c-0.25-0.16-0.56-0.3-0.85-0.35V4.3h-0.95v0.67c-0.57,0.18-0.91,0.63-0.91,1.19
			c0,0.75,0.6,1.08,1.18,1.3c0.47,0.19,0.5,0.33,0.5,0.45C15.74,8.1,15.57,8.22,15.31,8.22z"/>
	</g>
</g>
</svg>
