<?xml version="1.0" encoding="utf-8"?>
<!-- Generator: Adobe Illustrator 26.0.2, SVG Export Plug-In . SVG Version: 6.00 Build 0)  -->
<svg version="1.1" id="Layer_1" xmlns="http://www.w3.org/2000/svg" xmlns:xlink="http://www.w3.org/1999/xlink" x="0px" y="0px"
	 viewBox="0 0 24 24" style="enable-background:new 0 0 24 24;" xml:space="preserve">
<style type="text/css">
	.st0{fill:none;}
	.st1{fill:#979AAE;}
</style>
<g>
	<rect class="st0" width="24" height="24"/>
	<path class="st1" d="M19.2,6.41h-2.6V5.6c0-1.57-1.26-2.85-2.8-2.85h-3.6c0,0,0,0,0,0c-1.54,0-2.8,1.28-2.8,2.85v0.81H4.8
		C3.26,6.41,2,7.69,2,9.26v9.15c0,1.57,1.26,2.84,2.8,2.84h14.4c1.54,0,2.8-1.28,2.8-2.84V9.26C22,7.69,20.75,6.41,19.2,6.41z
		 M9.4,6.41V5.6c0-0.45,0.36-0.81,0.8-0.81h3.6c0.44,0,0.8,0.37,0.8,0.81v0.81H9.4z M11.2,14.64v-1.63h1.6v1.63H11.2z M10.2,16.67
		h3.6c0.55,0,1-0.46,1-1.02v-0.81h3.05c0.76,0,1.5-0.21,2.15-0.61v4.17c0,0.45-0.36,0.81-0.8,0.81H4.8c-0.44,0-0.8-0.37-0.8-0.81
		v-4.17c0.65,0.4,1.39,0.61,2.15,0.61c0,0,0,0,0,0H9.2v0.81C9.2,16.22,9.65,16.67,10.2,16.67z M20,10.63c0,1.21-0.97,2.19-2.15,2.19
		H14.8V12c0-0.56-0.45-1.02-1-1.02h-3.6c-0.55,0-1,0.46-1,1.02v0.81H6.15C4.96,12.82,4,11.83,4,10.63V9.26
		c0-0.45,0.36-0.81,0.8-0.81h14.4c0.44,0,0.8,0.37,0.8,0.81V10.63z"/>
</g>
</svg>
