<svg width="1032" height="496" xmlns="http://www.w3.org/2000/svg" xmlns:xlink="http://www.w3.org/1999/xlink">
    <defs>
        <path d="M278.392 30.28 250.12 88.317s-71.27 11.324-141.903 29.49C17.494 141.138 0 153.921 0 153.921v1014.364C0 1839.476 546.998 2042 546.998 2042S1094 1839.477 1094 1168.286V153.922s-17.498-12.783-108.22-36.117c-70.638-18.165-141.9-29.489-141.9-29.489l-28.277-58.035S707.218 0 546.998 0c-160.22 0-268.606 30.28-268.606 30.28" id="c"/>
        <path d="M278.392 30.28 250.12 88.317s-71.27 11.324-141.903 29.49C17.494 141.138 0 153.921 0 153.921v1014.364C0 1839.476 546.998 2042 546.998 2042S1094 1839.477 1094 1168.286V153.922s-17.498-12.783-108.22-36.117c-70.638-18.165-141.9-29.489-141.9-29.489l-28.277-58.035S707.218 0 546.998 0c-160.22 0-268.606 30.28-268.606 30.28" id="e"/>
        <path d="M278.392 30.28 250.12 88.317s-71.27 11.324-141.903 29.49C17.494 141.138 0 153.921 0 153.921v1014.364C0 1839.476 546.998 2042 546.998 2042S1094 1839.477 1094 1168.286V153.922s-17.498-12.783-108.22-36.117c-70.638-18.165-141.9-29.489-141.9-29.489l-28.277-58.035S707.218 0 546.998 0c-160.22 0-268.606 30.28-268.606 30.28" id="f"/>
        <path d="M278.392 30.28 250.12 88.317s-71.27 11.324-141.903 29.49C17.494 141.138 0 153.921 0 153.921v1014.364C0 1839.476 546.998 2042 546.998 2042S1094 1839.477 1094 1168.286V153.922s-17.498-12.783-108.22-36.117c-70.638-18.165-141.9-29.489-141.9-29.489l-28.277-58.035S707.218 0 546.998 0c-160.22 0-268.606 30.28-268.606 30.28" id="g"/>
        <path d="M278.392 30.28 250.12 88.317s-71.27 11.324-141.903 29.49C17.494 141.138 0 153.921 0 153.921v1014.364C0 1839.476 546.998 2042 546.998 2042S1094 1839.477 1094 1168.286V153.922s-17.498-12.783-108.22-36.117c-70.638-18.165-141.9-29.489-141.9-29.489l-28.277-58.035S707.218 0 546.998 0c-160.22 0-268.606 30.28-268.606 30.28" id="h"/>
        <path d="M278.392 30.28 250.12 88.317s-71.27 11.324-141.903 29.49C17.494 141.138 0 153.921 0 153.921v1014.364C0 1839.476 546.998 2042 546.998 2042S1094 1839.477 1094 1168.286V153.922s-17.498-12.783-108.22-36.117c-70.638-18.165-141.9-29.489-141.9-29.489l-28.277-58.035S707.218 0 546.998 0c-160.22 0-268.606 30.28-268.606 30.28" id="i"/>
        <path d="M278.392 30.28 250.12 88.317s-71.27 11.324-141.903 29.49C17.494 141.138 0 153.921 0 153.921v1014.364C0 1839.476 546.998 2042 546.998 2042S1094 1839.477 1094 1168.286V153.922s-17.498-12.783-108.22-36.117c-70.638-18.165-141.9-29.489-141.9-29.489l-28.277-58.035S707.218 0 546.998 0c-160.22 0-268.606 30.28-268.606 30.28" id="j"/>
        <path d="M278.392 30.28 250.12 88.317s-71.27 11.324-141.903 29.49C17.494 141.138 0 153.921 0 153.921v1014.364C0 1839.476 546.998 2042 546.998 2042S1094 1839.477 1094 1168.286V153.922s-17.498-12.783-108.22-36.117c-70.638-18.165-141.9-29.489-141.9-29.489l-28.277-58.035S707.218 0 546.998 0c-160.22 0-268.606 30.28-268.606 30.28" id="l"/>
        <path d="M278.392 30.28 250.12 88.317s-71.27 11.324-141.903 29.49C17.494 141.138 0 153.921 0 153.921v1014.364C0 1839.476 546.998 2042 546.998 2042S1094 1839.477 1094 1168.286V153.922s-17.498-12.783-108.22-36.117c-70.638-18.165-141.9-29.489-141.9-29.489l-28.277-58.035S707.218 0 546.998 0c-160.22 0-268.606 30.28-268.606 30.28" id="n"/>
        <path d="M22.392 78.965c-45.667 78.19-14.729 165.968 32.41 185.153 47.143 19.175 144.105-.09 178.472-78.431 34.367-78.333 18.94-122.95-25.993-160.566C193.277 13.39 166.862 0 136.013 0 99.948.004 57.826 18.307 22.392 78.965" id="p"/>
        <path d="M22.392 78.965c-45.667 78.19-14.729 165.968 32.41 185.153 47.143 19.175 144.105-.09 178.472-78.431 34.367-78.333 18.94-122.95-25.993-160.566C193.277 13.39 166.862 0 136.013 0 99.948.004 57.826 18.307 22.392 78.965" id="r"/>
        <path d="M22.392 78.965c-45.667 78.19-14.729 165.968 32.41 185.153 47.143 19.175 144.105-.09 178.472-78.431 34.367-78.333 18.94-122.95-25.993-160.566C193.277 13.39 166.862 0 136.013 0 99.948.004 57.826 18.307 22.392 78.965" id="s"/>
        <path d="M11.927 121.73c24.76 46.09 63.559 34.998 93.514 106.32 29.96 71.313 25.798 116.926 25.798 116.926s.833-77.955-88.203-124.395C124.6 326.901 98.294 404.821 85.47 476c34.749-39.868 43.273-58.88 102.358-71.322 31.693-6.673 42.538-3.747 55.268-.826 11 2.527 23.414 5.053 51.903 1.386-29.563-16.345-135.183-47.057-79.71-152.315 10.327 43.696 39.476 51.04 47.43 52.247-21.918-29.051-17.07-31.307-14.575-57.846 2.495-26.534 9.584-34.202 19.569-63.227 9.99-29.025 9.152-16.589 4.99-46.44-4.99 19.07-19.97 59.707-46.601 71.318 9.156-14.098 21.64-54.734 9.99-85.415-34.122 10.776-116.02 30.042-151.799 5.541 17.475 0 28.637-2.224 60.263-15.491-37.45-17.415-62.415-34.829-82.39-91.218-6.794 14.141-9.596 34.162-6.656 60.532C36.218 56.554 31.55 31.414 27.223 0 1.652 27.689-10.864 79.31 11.927 121.73" id="t"/>
        <path d="M278.392 30.28 250.12 88.317s-71.27 11.324-141.903 29.49C17.494 141.138 0 153.921 0 153.921v1014.364C0 1839.476 546.998 2042 546.998 2042S1094 1839.477 1094 1168.286V153.922s-17.498-12.783-108.22-36.117c-70.638-18.165-141.9-29.489-141.9-29.489l-28.277-58.035S707.218 0 546.998 0c-160.22 0-268.606 30.28-268.606 30.28" id="v"/>
        <path d="M278.392 30.28 250.12 88.317s-71.27 11.324-141.903 29.49C17.494 141.138 0 153.921 0 153.921v1014.364C0 1839.476 546.998 2042 546.998 2042S1094 1839.477 1094 1168.286V153.922s-17.498-12.783-108.22-36.117c-70.638-18.165-141.9-29.489-141.9-29.489l-28.277-58.035S707.218 0 546.998 0c-160.22 0-268.606 30.28-268.606 30.28" id="x"/>
        <path d="M278.392 30.28 250.12 88.317s-71.27 11.324-141.903 29.49C17.494 141.138 0 153.921 0 153.921v1014.364C0 1839.476 546.998 2042 546.998 2042S1094 1839.477 1094 1168.286V153.922s-17.498-12.783-108.22-36.117c-70.638-18.165-141.9-29.489-141.9-29.489l-28.277-58.035S707.218 0 546.998 0c-160.22 0-268.606 30.28-268.606 30.28" id="z"/>
        <path d="M278.392 30.28 250.12 88.317s-71.27 11.324-141.903 29.49C17.494 141.138 0 153.921 0 153.921v1014.364C0 1839.476 546.998 2042 546.998 2042S1094 1839.477 1094 1168.286V153.922s-17.498-12.783-108.22-36.117c-70.638-18.165-141.9-29.489-141.9-29.489l-28.277-58.035S707.218 0 546.998 0c-160.22 0-268.606 30.28-268.606 30.28" id="B"/>
        <path d="M278.392 30.28 250.12 88.317s-71.27 11.324-141.903 29.49C17.494 141.138 0 153.921 0 153.921v1014.364C0 1839.476 546.998 2042 546.998 2042S1094 1839.477 1094 1168.286V153.922s-17.498-12.783-108.22-36.117c-70.638-18.165-141.9-29.489-141.9-29.489l-28.277-58.035S707.218 0 546.998 0c-160.22 0-268.606 30.28-268.606 30.28" id="D"/>
        <path d="M22.392 78.965c-45.667 78.19-14.729 165.968 32.41 185.153 47.143 19.175 144.105-.09 178.472-78.431 34.367-78.333 18.94-122.95-25.993-160.566C193.277 13.39 166.862 0 136.013 0 99.948.004 57.826 18.307 22.392 78.965" id="F"/>
        <path d="M22.392 78.965c-45.667 78.19-14.729 165.968 32.41 185.153 47.143 19.175 144.105-.09 178.472-78.431 34.367-78.333 18.94-122.95-25.993-160.566C193.277 13.39 166.862 0 136.013 0 99.948.004 57.826 18.307 22.392 78.965" id="H"/>
        <path d="M22.392 78.965c-45.667 78.19-14.729 165.968 32.41 185.153 47.143 19.175 144.105-.09 178.472-78.431 34.367-78.333 18.94-122.95-25.993-160.566C193.277 13.39 166.862 0 136.013 0 99.948.004 57.826 18.307 22.392 78.965" id="I"/>
        <path d="M278.392 30.28 250.12 88.317s-71.27 11.324-141.903 29.49C17.494 141.138 0 153.921 0 153.921v1014.364C0 1839.476 546.998 2042 546.998 2042S1094 1839.477 1094 1168.286V153.922s-17.498-12.783-108.22-36.117c-70.638-18.165-141.9-29.489-141.9-29.489l-28.277-58.035S707.218 0 546.998 0c-160.22 0-268.606 30.28-268.606 30.28" id="J"/>
        <path d="M11.927 121.73c24.76 46.09 63.559 34.998 93.514 106.32 29.96 71.313 25.798 116.926 25.798 116.926s.833-77.955-88.203-124.395C124.6 326.901 98.294 404.821 85.47 476c34.749-39.868 43.273-58.88 102.358-71.322 31.693-6.673 42.538-3.747 55.268-.826 11 2.527 23.414 5.053 51.903 1.386-29.563-16.345-135.183-47.057-79.71-152.315 10.327 43.696 39.476 51.04 47.43 52.247-21.918-29.051-17.07-31.307-14.575-57.846 2.495-26.534 9.584-34.202 19.569-63.227 9.99-29.025 9.152-16.589 4.99-46.44-4.99 19.07-19.97 59.707-46.601 71.318 9.156-14.098 21.64-54.734 9.99-85.415-34.122 10.776-116.02 30.042-151.799 5.541 17.475 0 28.637-2.224 60.263-15.491-37.45-17.415-62.415-34.829-82.39-91.218-6.794 14.141-9.596 34.162-6.656 60.532C36.218 56.554 31.55 31.414 27.223 0 1.652 27.689-10.864 79.31 11.927 121.73" id="L"/>
        <path d="M11.927 121.73c24.76 46.09 63.559 34.998 93.514 106.32 29.96 71.313 25.798 116.926 25.798 116.926s.833-77.955-88.203-124.395C124.6 326.901 98.294 404.821 85.47 476c34.749-39.868 43.273-58.88 102.358-71.322 31.693-6.673 42.538-3.747 55.268-.826 11 2.527 23.414 5.053 51.903 1.386-29.563-16.345-135.183-47.057-79.71-152.315 10.327 43.696 39.476 51.04 47.43 52.247-21.918-29.051-17.07-31.307-14.575-57.846 2.495-26.534 9.584-34.202 19.569-63.227 9.99-29.025 9.152-16.589 4.99-46.44-4.99 19.07-19.97 59.707-46.601 71.318 9.156-14.098 21.64-54.734 9.99-85.415-34.122 10.776-116.02 30.042-151.799 5.541 17.475 0 28.637-2.224 60.263-15.491-37.45-17.415-62.415-34.829-82.39-91.218-6.794 14.141-9.596 34.162-6.656 60.532C36.218 56.554 31.55 31.414 27.223 0 1.652 27.689-10.864 79.31 11.927 121.73" id="N"/>
        <path d="M11.927 121.73c24.76 46.09 63.559 34.998 93.514 106.32 29.96 71.313 25.798 116.926 25.798 116.926s.833-77.955-88.203-124.395C124.6 326.901 98.294 404.821 85.47 476c34.749-39.868 43.273-58.88 102.358-71.322 31.693-6.673 42.538-3.747 55.268-.826 11 2.527 23.414 5.053 51.903 1.386-29.563-16.345-135.183-47.057-79.71-152.315 10.327 43.696 39.476 51.04 47.43 52.247-21.918-29.051-17.07-31.307-14.575-57.846 2.495-26.534 9.584-34.202 19.569-63.227 9.99-29.025 9.152-16.589 4.99-46.44-4.99 19.07-19.97 59.707-46.601 71.318 9.156-14.098 21.64-54.734 9.99-85.415-34.122 10.776-116.02 30.042-151.799 5.541 17.475 0 28.637-2.224 60.263-15.491-37.45-17.415-62.415-34.829-82.39-91.218-6.794 14.141-9.596 34.162-6.656 60.532C36.218 56.554 31.55 31.414 27.223 0 1.652 27.689-10.864 79.31 11.927 121.73" id="P"/>
        <path d="M11.927 121.73c24.76 46.09 63.559 34.998 93.514 106.32 29.96 71.313 25.798 116.926 25.798 116.926s.833-77.955-88.203-124.395C124.6 326.901 98.294 404.821 85.47 476c34.749-39.868 43.273-58.88 102.358-71.322 31.693-6.673 42.538-3.747 55.268-.826 11 2.527 23.414 5.053 51.903 1.386-29.563-16.345-135.183-47.057-79.71-152.315 10.327 43.696 39.476 51.04 47.43 52.247-21.918-29.051-17.07-31.307-14.575-57.846 2.495-26.534 9.584-34.202 19.569-63.227 9.99-29.025 9.152-16.589 4.99-46.44-4.99 19.07-19.97 59.707-46.601 71.318 9.156-14.098 21.64-54.734 9.99-85.415-34.122 10.776-116.02 30.042-151.799 5.541 17.475 0 28.637-2.224 60.263-15.491-37.45-17.415-62.415-34.829-82.39-91.218-6.794 14.141-9.596 34.162-6.656 60.532C36.218 56.554 31.55 31.414 27.223 0 1.652 27.689-10.864 79.31 11.927 121.73z" id="R"/>
        <path d="M278.392 30.28 250.12 88.317s-71.27 11.324-141.903 29.49C17.494 141.138 0 153.921 0 153.921v1014.364C0 1839.476 546.998 2042 546.998 2042S1094 1839.477 1094 1168.286V153.922s-17.498-12.783-108.22-36.117c-70.638-18.165-141.9-29.489-141.9-29.489l-28.277-58.035S707.218 0 546.998 0c-160.22 0-268.606 30.28-268.606 30.28" id="T"/>
        <path d="M12.04 276.49c-28.643 123.629 0 208.215 21.886 248.51-6.484-105.225 4.223-118.469 29.178-251.865C88.229 138.81 47.707 55.97 20.957 0c12.157 73.88 17.021 164.555-8.916 276.49" id="V"/>
        <path d="M12.04 276.49c-28.643 123.629 0 208.215 21.886 248.51-6.484-105.225 4.223-118.469 29.178-251.865C88.229 138.81 47.707 55.97 20.957 0c12.157 73.88 17.021 164.555-8.916 276.49" id="X"/>
        <path d="M278.392 30.28 250.12 88.317s-71.27 11.324-141.903 29.49C17.494 141.138 0 153.921 0 153.921v1014.364C0 1839.476 546.998 2042 546.998 2042S1094 1839.477 1094 1168.286V153.922s-17.498-12.783-108.22-36.117c-70.638-18.165-141.9-29.489-141.9-29.489l-28.277-58.035S707.218 0 546.998 0c-160.22 0-268.606 30.28-268.606 30.28" id="Z"/>
        <path d="M278.392 30.28 250.12 88.317s-71.27 11.324-141.903 29.49C17.494 141.138 0 153.921 0 153.921v1014.364C0 1839.476 546.998 2042 546.998 2042S1094 1839.477 1094 1168.286V153.922s-17.498-12.783-108.22-36.117c-70.638-18.165-141.9-29.489-141.9-29.489l-28.277-58.035S707.218 0 546.998 0c-160.22 0-268.606 30.28-268.606 30.28" id="aa"/>
        <path d="M278.392 30.28 250.12 88.317s-71.27 11.324-141.903 29.49C17.494 141.138 0 153.921 0 153.921v1014.364C0 1839.476 546.998 2042 546.998 2042S1094 1839.477 1094 1168.286V153.922s-17.498-12.783-108.22-36.117c-70.638-18.165-141.9-29.489-141.9-29.489l-28.277-58.035S707.218 0 546.998 0c-160.22 0-268.606 30.28-268.606 30.28" id="ab"/>
        <path d="M278.392 30.28 250.12 88.317s-71.27 11.324-141.903 29.49C17.494 141.138 0 153.921 0 153.921v1014.364C0 1839.476 546.998 2042 546.998 2042S1094 1839.477 1094 1168.286V153.922s-17.498-12.783-108.22-36.117c-70.638-18.165-141.9-29.489-141.9-29.489l-28.277-58.035S707.218 0 546.998 0c-160.22 0-268.606 30.28-268.606 30.28" id="ac"/>
        <path d="M278.392 30.28 250.12 88.317s-71.27 11.324-141.903 29.49C17.494 141.138 0 153.921 0 153.921v1014.364C0 1839.476 546.998 2042 546.998 2042S1094 1839.477 1094 1168.286V153.922s-17.498-12.783-108.22-36.117c-70.638-18.165-141.9-29.489-141.9-29.489l-28.277-58.035S707.218 0 546.998 0c-160.22 0-268.606 30.28-268.606 30.28" id="ad"/>
        <path d="M278.392 30.28 250.12 88.317s-71.27 11.324-141.903 29.49C17.494 141.138 0 153.921 0 153.921v1014.364C0 1839.476 546.998 2042 546.998 2042S1094 1839.477 1094 1168.286V153.922s-17.498-12.783-108.22-36.117c-70.638-18.165-141.9-29.489-141.9-29.489l-28.277-58.035S707.218 0 546.998 0c-160.22 0-268.606 30.28-268.606 30.28" id="ae"/>
        <path d="M278.392 30.28 250.12 88.317s-71.27 11.324-141.903 29.49C17.494 141.138 0 153.921 0 153.921v1014.364C0 1839.476 546.998 2042 546.998 2042S1094 1839.477 1094 1168.286V153.922s-17.498-12.783-108.22-36.117c-70.638-18.165-141.9-29.489-141.9-29.489l-28.277-58.035S707.218 0 546.998 0c-160.22 0-268.606 30.28-268.606 30.28" id="af"/>
        <path d="M278.392 30.28 250.12 88.317s-71.27 11.324-141.903 29.49C17.494 141.138 0 153.921 0 153.921v1014.364C0 1839.476 546.998 2042 546.998 2042S1094 1839.477 1094 1168.286V153.922s-17.498-12.783-108.22-36.117c-70.638-18.165-141.9-29.489-141.9-29.489l-28.277-58.035S707.218 0 546.998 0c-160.22 0-268.606 30.28-268.606 30.28" id="ag"/>
        <path d="M278.392 30.28 250.12 88.317s-71.27 11.324-141.903 29.49C17.494 141.138 0 153.921 0 153.921v1014.364C0 1839.476 546.998 2042 546.998 2042S1094 1839.477 1094 1168.286V153.922s-17.498-12.783-108.22-36.117c-70.638-18.165-141.9-29.489-141.9-29.489l-28.277-58.035S707.218 0 546.998 0c-160.22 0-268.606 30.28-268.606 30.28" id="ah"/>
        <path d="M278.392 30.28 250.12 88.317s-71.27 11.324-141.903 29.49C17.494 141.138 0 153.921 0 153.921v1014.364C0 1839.476 546.998 2042 546.998 2042S1094 1839.477 1094 1168.286V153.922s-17.498-12.783-108.22-36.117c-70.638-18.165-141.9-29.489-141.9-29.489l-28.277-58.035S707.218 0 546.998 0c-160.22 0-268.606 30.28-268.606 30.28" id="aj"/>
        <path d="M7.896 273.135C32.846 406.53 43.558 419.775 37.078 525c21.881-40.295 50.524-124.881 21.881-248.51C33.021 164.555 37.881 73.88 50.042 0 23.297 55.97-17.229 138.81 7.896 273.135" id="al"/>
        <path d="M7.896 273.135C32.846 406.53 43.558 419.775 37.078 525c21.881-40.295 50.524-124.881 21.881-248.51C33.021 164.555 37.881 73.88 50.042 0 23.297 55.97-17.229 138.81 7.896 273.135" id="an"/>
        <path d="M278.392 30.28 250.12 88.317s-71.27 11.324-141.903 29.49C17.494 141.138 0 153.921 0 153.921v1014.364C0 1839.476 546.998 2042 546.998 2042S1094 1839.477 1094 1168.286V153.922s-17.498-12.783-108.22-36.117c-70.638-18.165-141.9-29.489-141.9-29.489l-28.277-58.035S707.218 0 546.998 0c-160.22 0-268.606 30.28-268.606 30.28" id="ap"/>
        <path d="M278.392 30.28 250.12 88.317s-71.27 11.324-141.903 29.49C17.494 141.138 0 153.921 0 153.921v1014.364C0 1839.476 546.998 2042 546.998 2042S1094 1839.477 1094 1168.286V153.922s-17.498-12.783-108.22-36.117c-70.638-18.165-141.9-29.489-141.9-29.489l-28.277-58.035S707.218 0 546.998 0c-160.22 0-268.606 30.28-268.606 30.28" id="ar"/>
        <path d="M44.719 25.12c-44.933 37.617-60.36 82.234-25.993 160.567 34.367 78.341 131.325 97.606 178.468 78.43 47.143-19.184 78.081-106.962 32.414-185.152C194.175 18.307 152.052.005 115.991 0 85.138 0 58.727 13.39 44.72 25.12" id="at"/>
        <path d="M44.719 25.12c-44.933 37.617-60.36 82.234-25.993 160.567 34.367 78.341 131.325 97.606 178.468 78.43 47.143-19.184 78.081-106.962 32.414-185.152C194.175 18.307 152.052.005 115.991 0 85.138 0 58.727 13.39 44.72 25.12" id="av"/>
        <path d="M44.719 25.12c-44.933 37.617-60.36 82.234-25.993 160.567 34.367 78.341 131.325 97.606 178.468 78.43 47.143-19.184 78.081-106.962 32.414-185.152C194.175 18.307 152.052.005 115.991 0 85.138 0 58.727 13.39 44.72 25.12" id="aw"/>
        <path d="M278.392 30.28 250.12 88.317s-71.27 11.324-141.903 29.49C17.494 141.138 0 153.921 0 153.921v1014.364C0 1839.476 546.998 2042 546.998 2042S1094 1839.477 1094 1168.286V153.922s-17.498-12.783-108.22-36.117c-70.638-18.165-141.9-29.489-141.9-29.489l-28.277-58.035S707.218 0 546.998 0c-160.22 0-268.606 30.28-268.606 30.28" id="ax"/>
        <path d="M278.392 30.28 250.12 88.317s-71.27 11.324-141.903 29.49C17.494 141.138 0 153.921 0 153.921v1014.364C0 1839.476 546.998 2042 546.998 2042S1094 1839.477 1094 1168.286V153.922s-17.498-12.783-108.22-36.117c-70.638-18.165-141.9-29.489-141.9-29.489l-28.277-58.035S707.218 0 546.998 0c-160.22 0-268.606 30.28-268.606 30.28" id="az"/>
        <path d="M239.483 82.924c2.945-26.37.147-46.39-6.656-60.532-19.97 56.39-44.935 73.803-82.38 91.218 31.622 13.267 42.787 15.491 60.262 15.491-35.783 24.501-117.685 5.235-151.802-5.541-11.647 30.681.833 71.317 9.985 85.415-26.626-11.611-41.606-52.247-46.6-71.318-4.158 29.851-4.991 17.415 4.994 46.44 9.99 29.025 17.07 36.693 19.569 63.227 2.495 26.539 7.347 28.795-14.579 57.846 7.958-1.207 37.102-8.551 47.439-52.247C135.178 358.181 29.558 388.893 0 405.238c28.489 3.667 40.898 1.14 51.899-1.386 12.734-2.921 23.574-5.847 55.276.826 59.08 12.441 67.609 31.454 102.353 71.322-12.823-71.18-39.133-149.1 42.44-255.419-89.04 46.44-88.207 124.395-88.207 124.395s-4.162-45.613 25.793-116.926c29.96-71.322 68.759-60.23 93.518-106.32C305.862 79.31 293.352 27.69 267.781 0c-4.331 31.414-9 56.554-28.298 82.924" id="aB"/>
        <path d="M278.392 30.28 250.12 88.317s-71.27 11.324-141.903 29.49C17.494 141.138 0 153.921 0 153.921v1014.364C0 1839.476 546.998 2042 546.998 2042S1094 1839.477 1094 1168.286V153.922s-17.498-12.783-108.22-36.117c-70.638-18.165-141.9-29.489-141.9-29.489l-28.277-58.035S707.218 0 546.998 0c-160.22 0-268.606 30.28-268.606 30.28" id="aD"/>
        <path d="M278.392 30.28 250.12 88.317s-71.27 11.324-141.903 29.49C17.494 141.138 0 153.921 0 153.921v1014.364C0 1839.476 546.998 2042 546.998 2042S1094 1839.477 1094 1168.286V153.922s-17.498-12.783-108.22-36.117c-70.638-18.165-141.9-29.489-141.9-29.489l-28.277-58.035S707.218 0 546.998 0c-160.22 0-268.606 30.28-268.606 30.28" id="aF"/>
        <path d="M278.392 30.28 250.12 88.317s-71.27 11.324-141.903 29.49C17.494 141.138 0 153.921 0 153.921v1014.364C0 1839.476 546.998 2042 546.998 2042S1094 1839.477 1094 1168.286V153.922s-17.498-12.783-108.22-36.117c-70.638-18.165-141.9-29.489-141.9-29.489l-28.277-58.035S707.218 0 546.998 0c-160.22 0-268.606 30.28-268.606 30.28" id="aH"/>
        <path d="M44.719 25.12c-44.933 37.617-60.36 82.234-25.993 160.567 34.367 78.341 131.325 97.606 178.468 78.43 47.143-19.184 78.081-106.962 32.414-185.152C194.175 18.307 152.052.005 115.991 0 85.138 0 58.727 13.39 44.72 25.12" id="aJ"/>
        <path d="M44.719 25.12c-44.933 37.617-60.36 82.234-25.993 160.567 34.367 78.341 131.325 97.606 178.468 78.43 47.143-19.184 78.081-106.962 32.414-185.152C194.175 18.307 152.052.005 115.991 0 85.138 0 58.727 13.39 44.72 25.12" id="aL"/>
        <path d="M44.719 25.12c-44.933 37.617-60.36 82.234-25.993 160.567 34.367 78.341 131.325 97.606 178.468 78.43 47.143-19.184 78.081-106.962 32.414-185.152C194.175 18.307 152.052.005 115.991 0 85.138 0 58.727 13.39 44.72 25.12" id="aM"/>
        <path d="M278.392 30.28 250.12 88.317s-71.27 11.324-141.903 29.49C17.494 141.138 0 153.921 0 153.921v1014.364C0 1839.476 546.998 2042 546.998 2042S1094 1839.477 1094 1168.286V153.922s-17.498-12.783-108.22-36.117c-70.638-18.165-141.9-29.489-141.9-29.489l-28.277-58.035S707.218 0 546.998 0c-160.22 0-268.606 30.28-268.606 30.28" id="aN"/>
        <path d="M278.392 30.28 250.12 88.317s-71.27 11.324-141.903 29.49C17.494 141.138 0 153.921 0 153.921v1014.364C0 1839.476 546.998 2042 546.998 2042S1094 1839.477 1094 1168.286V153.922s-17.498-12.783-108.22-36.117c-70.638-18.165-141.9-29.489-141.9-29.489l-28.277-58.035S707.218 0 546.998 0c-160.22 0-268.606 30.28-268.606 30.28" id="aP"/>
        <path d="M239.483 82.924c2.945-26.37.147-46.39-6.656-60.532-19.97 56.39-44.935 73.803-82.38 91.218 31.622 13.267 42.787 15.491 60.262 15.491-35.783 24.501-117.685 5.235-151.802-5.541-11.647 30.681.833 71.317 9.985 85.415-26.626-11.611-41.606-52.247-46.6-71.318-4.158 29.851-4.991 17.415 4.994 46.44 9.99 29.025 17.07 36.693 19.569 63.227 2.495 26.539 7.347 28.795-14.579 57.846 7.958-1.207 37.102-8.551 47.439-52.247C135.178 358.181 29.558 388.893 0 405.238c28.489 3.667 40.898 1.14 51.899-1.386 12.734-2.921 23.574-5.847 55.276.826 59.08 12.441 67.609 31.454 102.353 71.322-12.823-71.18-39.133-149.1 42.44-255.419-89.04 46.44-88.207 124.395-88.207 124.395s-4.162-45.613 25.793-116.926c29.96-71.322 68.759-60.23 93.518-106.32C305.862 79.31 293.352 27.69 267.781 0c-4.331 31.414-9 56.554-28.298 82.924" id="aR"/>
        <path d="M239.483 82.924c2.945-26.37.147-46.39-6.656-60.532-19.97 56.39-44.935 73.803-82.38 91.218 31.622 13.267 42.787 15.491 60.262 15.491-35.783 24.501-117.685 5.235-151.802-5.541-11.647 30.681.833 71.317 9.985 85.415-26.626-11.611-41.606-52.247-46.6-71.318-4.158 29.851-4.991 17.415 4.994 46.44 9.99 29.025 17.07 36.693 19.569 63.227 2.495 26.539 7.347 28.795-14.579 57.846 7.958-1.207 37.102-8.551 47.439-52.247C135.178 358.181 29.558 388.893 0 405.238c28.489 3.667 40.898 1.14 51.899-1.386 12.734-2.921 23.574-5.847 55.276.826 59.08 12.441 67.609 31.454 102.353 71.322-12.823-71.18-39.133-149.1 42.44-255.419-89.04 46.44-88.207 124.395-88.207 124.395s-4.162-45.613 25.793-116.926c29.96-71.322 68.759-60.23 93.518-106.32C305.862 79.31 293.352 27.69 267.781 0c-4.331 31.414-9 56.554-28.298 82.924" id="aT"/>
        <path d="M239.483 82.924c2.945-26.37.147-46.39-6.656-60.532-19.97 56.39-44.935 73.803-82.38 91.218 31.622 13.267 42.787 15.491 60.262 15.491-35.783 24.501-117.685 5.235-151.802-5.541-11.647 30.681.833 71.317 9.985 85.415-26.626-11.611-41.606-52.247-46.6-71.318-4.158 29.851-4.991 17.415 4.994 46.44 9.99 29.025 17.07 36.693 19.569 63.227 2.495 26.539 7.347 28.795-14.579 57.846 7.958-1.207 37.102-8.551 47.439-52.247C135.178 358.181 29.558 388.893 0 405.238c28.489 3.667 40.898 1.14 51.899-1.386 12.734-2.921 23.574-5.847 55.276.826 59.08 12.441 67.609 31.454 102.353 71.322-12.823-71.18-39.133-149.1 42.44-255.419-89.04 46.44-88.207 124.395-88.207 124.395s-4.162-45.613 25.793-116.926c29.96-71.322 68.759-60.23 93.518-106.32C305.862 79.31 293.352 27.69 267.781 0c-4.331 31.414-9 56.554-28.298 82.924" id="aV"/>
        <path d="M239.483 82.924c2.945-26.37.147-46.39-6.656-60.532-19.97 56.39-44.935 73.803-82.38 91.218 31.622 13.267 42.787 15.491 60.262 15.491-35.783 24.501-117.685 5.235-151.802-5.541-11.647 30.681.833 71.317 9.985 85.415-26.626-11.611-41.606-52.247-46.6-71.318-4.158 29.851-4.991 17.415 4.994 46.44 9.99 29.025 17.07 36.693 19.569 63.227 2.495 26.539 7.347 28.795-14.579 57.846 7.958-1.207 37.102-8.551 47.439-52.247C135.178 358.181 29.558 388.893 0 405.238c28.489 3.667 40.898 1.14 51.899-1.386 12.734-2.921 23.574-5.847 55.276.826 59.08 12.441 67.609 31.454 102.353 71.322-12.823-71.18-39.133-149.1 42.44-255.419-89.04 46.44-88.207 124.395-88.207 124.395s-4.162-45.613 25.793-116.926c29.96-71.322 68.759-60.23 93.518-106.32C305.862 79.31 293.352 27.69 267.781 0c-4.331 31.414-9 56.554-28.298 82.924z" id="aX"/>
        <path d="M278.392 30.28 250.12 88.317s-71.27 11.324-141.903 29.49C17.494 141.138 0 153.921 0 153.921v1014.364C0 1839.476 546.998 2042 546.998 2042S1094 1839.477 1094 1168.286V153.922s-17.498-12.783-108.22-36.117c-70.638-18.165-141.9-29.489-141.9-29.489l-28.277-58.035S707.218 0 546.998 0c-160.22 0-268.606 30.28-268.606 30.28" id="aZ"/>
        <path d="M549.793 49.864c-69.94-26.213-147.841-19.245-147.841-19.245L368.5 69.11l-33.456-38.49s-77.892-6.968-147.841 19.245C194.135 39.952 210.44 22.766 260.687 0 170.341 1.614 62.377 35.106 0 131.218c13.464 2.157 54.235 7.87 91.854 34.115 37.614 26.243 66.486 46.368 100.6 42.865 34.119-3.495 39.264-28.432 74.356-29.744-18.862 9.752-24.492 28.872-23.62 69.114.876 40.237-.872 102.346-20.117 131.218-19.245 28.863-27.12 91.848 30.615 106.722C311.423 500.378 368.5 510 368.5 510s57.072-9.622 114.807-24.492c57.74-14.874 49.865-77.86 30.62-106.722-19.245-28.872-20.993-90.981-20.117-131.218.872-40.242-4.753-59.362-23.62-69.114 35.092 1.312 40.242 26.249 74.356 29.744 34.119 3.503 62.982-16.622 100.6-42.865 37.619-26.244 78.394-31.958 91.854-34.115C674.627 35.106 566.663 1.614 476.313 0c50.25 22.766 66.552 39.952 73.48 49.864z" id="bb"/>
        <path d="M549.793 49.864c-69.94-26.213-147.841-19.245-147.841-19.245L368.5 69.11l-33.456-38.49s-77.892-6.968-147.841 19.245C194.135 39.952 210.44 22.766 260.687 0 170.341 1.614 62.377 35.106 0 131.218c13.464 2.157 54.235 7.87 91.854 34.115 37.614 26.243 66.486 46.368 100.6 42.865 34.119-3.495 39.264-28.432 74.356-29.744-18.862 9.752-24.492 28.872-23.62 69.114.876 40.237-.872 102.346-20.117 131.218-19.245 28.863-27.12 91.848 30.615 106.722C311.423 500.378 368.5 510 368.5 510s57.072-9.622 114.807-24.492c57.74-14.874 49.865-77.86 30.62-106.722-19.245-28.872-20.993-90.981-20.117-131.218.872-40.242-4.753-59.362-23.62-69.114 35.092 1.312 40.242 26.249 74.356 29.744 34.119 3.503 62.982-16.622 100.6-42.865 37.619-26.244 78.394-31.958 91.854-34.115C674.627 35.106 566.663 1.614 476.313 0c50.25 22.766 66.552 39.952 73.48 49.864" id="bd"/>
        <path d="M549.793 49.864c-69.94-26.213-147.841-19.245-147.841-19.245L368.5 69.11l-33.456-38.49s-77.892-6.968-147.841 19.245C194.135 39.952 210.44 22.766 260.687 0 170.341 1.614 62.377 35.106 0 131.218c13.464 2.157 54.235 7.87 91.854 34.115 37.614 26.243 66.486 46.368 100.6 42.865 34.119-3.495 39.264-28.432 74.356-29.744-18.862 9.752-24.492 28.872-23.62 69.114.876 40.237-.872 102.346-20.117 131.218-19.245 28.863-27.12 91.848 30.615 106.722C311.423 500.378 368.5 510 368.5 510s57.072-9.622 114.807-24.492c57.74-14.874 49.865-77.86 30.62-106.722-19.245-28.872-20.993-90.981-20.117-131.218.872-40.242-4.753-59.362-23.62-69.114 35.092 1.312 40.242 26.249 74.356 29.744 34.119 3.503 62.982-16.622 100.6-42.865 37.619-26.244 78.394-31.958 91.854-34.115C674.627 35.106 566.663 1.614 476.313 0c50.25 22.766 66.552 39.952 73.48 49.864" id="bf"/>
        <path d="M549.793 49.864c-69.94-26.213-147.841-19.245-147.841-19.245L368.5 69.11l-33.456-38.49s-77.892-6.968-147.841 19.245C194.135 39.952 210.44 22.766 260.687 0 170.341 1.614 62.377 35.106 0 131.218c13.464 2.157 54.235 7.87 91.854 34.115 37.614 26.243 66.486 46.368 100.6 42.865 34.119-3.495 39.264-28.432 74.356-29.744-18.862 9.752-24.492 28.872-23.62 69.114.876 40.237-.872 102.346-20.117 131.218-19.245 28.863-27.12 91.848 30.615 106.722C311.423 500.378 368.5 510 368.5 510s57.072-9.622 114.807-24.492c57.74-14.874 49.865-77.86 30.62-106.722-19.245-28.872-20.993-90.981-20.117-131.218.872-40.242-4.753-59.362-23.62-69.114 35.092 1.312 40.242 26.249 74.356 29.744 34.119 3.503 62.982-16.622 100.6-42.865 37.619-26.244 78.394-31.958 91.854-34.115C674.627 35.106 566.663 1.614 476.313 0c50.25 22.766 66.552 39.952 73.48 49.864z" id="bh"/>
        <path d="M549.793 49.864c-69.94-26.213-147.841-19.245-147.841-19.245L368.5 69.11l-33.456-38.49s-77.892-6.968-147.841 19.245C194.135 39.952 210.44 22.766 260.687 0 170.341 1.614 62.377 35.106 0 131.218c13.464 2.157 54.235 7.87 91.854 34.115 37.614 26.243 66.486 46.368 100.6 42.865 34.119-3.495 39.264-28.432 74.356-29.744-18.862 9.752-24.492 28.872-23.62 69.114.876 40.237-.872 102.346-20.117 131.218-19.245 28.863-27.12 91.848 30.615 106.722C311.423 500.378 368.5 510 368.5 510s57.072-9.622 114.807-24.492c57.74-14.874 49.865-77.86 30.62-106.722-19.245-28.872-20.993-90.981-20.117-131.218.872-40.242-4.753-59.362-23.62-69.114 35.092 1.312 40.242 26.249 74.356 29.744 34.119 3.503 62.982-16.622 100.6-42.865 37.619-26.244 78.394-31.958 91.854-34.115C674.627 35.106 566.663 1.614 476.313 0c50.25 22.766 66.552 39.952 73.48 49.864z" id="bi"/>
        <path d="M549.793 49.864c-69.94-26.213-147.841-19.245-147.841-19.245L368.5 69.11l-33.456-38.49s-77.892-6.968-147.841 19.245C194.135 39.952 210.44 22.766 260.687 0 170.341 1.614 62.377 35.106 0 131.218c13.464 2.157 54.235 7.87 91.854 34.115 37.614 26.243 66.486 46.368 100.6 42.865 34.119-3.495 39.264-28.432 74.356-29.744-18.862 9.752-24.492 28.872-23.62 69.114.876 40.237-.872 102.346-20.117 131.218-19.245 28.863-27.12 91.848 30.615 106.722C311.423 500.378 368.5 510 368.5 510s57.072-9.622 114.807-24.492c57.74-14.874 49.865-77.86 30.62-106.722-19.245-28.872-20.993-90.981-20.117-131.218.872-40.242-4.753-59.362-23.62-69.114 35.092 1.312 40.242 26.249 74.356 29.744 34.119 3.503 62.982-16.622 100.6-42.865 37.619-26.244 78.394-31.958 91.854-34.115C674.627 35.106 566.663 1.614 476.313 0c50.25 22.766 66.552 39.952 73.48 49.864" id="bj"/>
        <path d="M549.793 49.864c-69.94-26.213-147.841-19.245-147.841-19.245L368.5 69.11l-33.456-38.49s-77.892-6.968-147.841 19.245C194.135 39.952 210.44 22.766 260.687 0 170.341 1.614 62.377 35.106 0 131.218c13.464 2.157 54.235 7.87 91.854 34.115 37.614 26.243 66.486 46.368 100.6 42.865 34.119-3.495 39.264-28.432 74.356-29.744-18.862 9.752-24.492 28.872-23.62 69.114.876 40.237-.872 102.346-20.117 131.218-19.245 28.863-27.12 91.848 30.615 106.722C311.423 500.378 368.5 510 368.5 510s57.072-9.622 114.807-24.492c57.74-14.874 49.865-77.86 30.62-106.722-19.245-28.872-20.993-90.981-20.117-131.218.872-40.242-4.753-59.362-23.62-69.114 35.092 1.312 40.242 26.249 74.356 29.744 34.119 3.503 62.982-16.622 100.6-42.865 37.619-26.244 78.394-31.958 91.854-34.115C674.627 35.106 566.663 1.614 476.313 0c50.25 22.766 66.552 39.952 73.48 49.864" id="bl"/>
        <path d="M549.793 49.864c-69.94-26.213-147.841-19.245-147.841-19.245L368.5 69.11l-33.456-38.49s-77.892-6.968-147.841 19.245C194.135 39.952 210.44 22.766 260.687 0 170.341 1.614 62.377 35.106 0 131.218c13.464 2.157 54.235 7.87 91.854 34.115 37.614 26.243 66.486 46.368 100.6 42.865 34.119-3.495 39.264-28.432 74.356-29.744-18.862 9.752-24.492 28.872-23.62 69.114.876 40.237-.872 102.346-20.117 131.218-19.245 28.863-27.12 91.848 30.615 106.722C311.423 500.378 368.5 510 368.5 510s57.072-9.622 114.807-24.492c57.74-14.874 49.865-77.86 30.62-106.722-19.245-28.872-20.993-90.981-20.117-131.218.872-40.242-4.753-59.362-23.62-69.114 35.092 1.312 40.242 26.249 74.356 29.744 34.119 3.503 62.982-16.622 100.6-42.865 37.619-26.244 78.394-31.958 91.854-34.115C674.627 35.106 566.663 1.614 476.313 0c50.25 22.766 66.552 39.952 73.48 49.864" id="bn"/>
        <path d="M549.793 49.864c-69.94-26.213-147.841-19.245-147.841-19.245L368.5 69.11l-33.456-38.49s-77.892-6.968-147.841 19.245C194.135 39.952 210.44 22.766 260.687 0 170.341 1.614 62.377 35.106 0 131.218c13.464 2.157 54.235 7.87 91.854 34.115 37.614 26.243 66.486 46.368 100.6 42.865 34.119-3.495 39.264-28.432 74.356-29.744-18.862 9.752-24.492 28.872-23.62 69.114.876 40.237-.872 102.346-20.117 131.218-19.245 28.863-27.12 91.848 30.615 106.722C311.423 500.378 368.5 510 368.5 510s57.072-9.622 114.807-24.492c57.74-14.874 49.865-77.86 30.62-106.722-19.245-28.872-20.993-90.981-20.117-131.218.872-40.242-4.753-59.362-23.62-69.114 35.092 1.312 40.242 26.249 74.356 29.744 34.119 3.503 62.982-16.622 100.6-42.865 37.619-26.244 78.394-31.958 91.854-34.115C674.627 35.106 566.663 1.614 476.313 0c50.25 22.766 66.552 39.952 73.48 49.864" id="bp"/>
        <path d="M549.793 49.864c-69.94-26.213-147.841-19.245-147.841-19.245L368.5 69.11l-33.456-38.49s-77.892-6.968-147.841 19.245C194.135 39.952 210.44 22.766 260.687 0 170.341 1.614 62.377 35.106 0 131.218c13.464 2.157 54.235 7.87 91.854 34.115 37.614 26.243 66.486 46.368 100.6 42.865 34.119-3.495 39.264-28.432 74.356-29.744-18.862 9.752-24.492 28.872-23.62 69.114.876 40.237-.872 102.346-20.117 131.218-19.245 28.863-27.12 91.848 30.615 106.722C311.423 500.378 368.5 510 368.5 510s57.072-9.622 114.807-24.492c57.74-14.874 49.865-77.86 30.62-106.722-19.245-28.872-20.993-90.981-20.117-131.218.872-40.242-4.753-59.362-23.62-69.114 35.092 1.312 40.242 26.249 74.356 29.744 34.119 3.503 62.982-16.622 100.6-42.865 37.619-26.244 78.394-31.958 91.854-34.115C674.627 35.106 566.663 1.614 476.313 0c50.25 22.766 66.552 39.952 73.48 49.864" id="br"/>
        <path d="M278.392 30.28 250.12 88.317s-71.27 11.324-141.903 29.49C17.494 141.138 0 153.921 0 153.921v1014.364C0 1839.476 546.998 2042 546.998 2042S1094 1839.477 1094 1168.286V153.922s-17.498-12.783-108.22-36.117c-70.638-18.165-141.9-29.489-141.9-29.489l-28.277-58.035S707.218 0 546.998 0c-160.22 0-268.606 30.28-268.606 30.28" id="bt"/>
        <path d="M278.392 30.28 250.12 88.317s-71.27 11.324-141.903 29.49C17.494 141.138 0 153.921 0 153.921v1014.364C0 1839.476 546.998 2042 546.998 2042S1094 1839.477 1094 1168.286V153.922s-17.498-12.783-108.22-36.117c-70.638-18.165-141.9-29.489-141.9-29.489l-28.277-58.035S707.218 0 546.998 0c-160.22 0-268.606 30.28-268.606 30.28" id="bv"/>
        <path d="M9.83 370.998C9.83 575.899 190.783 742 414 742c223.22 0 404.17-166.1 404.17-371.002C818.17 166.105 927.918 0 414 0-99.915 0 9.83 166.105 9.83 370.998" id="bx"/>
        <rect id="a" x="0" y="0" width="1032" height="496" rx="24"/>
        <rect id="bz" x="0" y="0" width="1032" height="496" rx="24"/>
    </defs>
    <g fill="none" fill-rule="evenodd">
        <mask id="b" fill="#fff">
            <use xlink:href="#a"/>
        </mask>
        <use fill="#4842D1" xlink:href="#a"/>
        <g mask="url(#b)" opacity=".1">
            <path d="M509.43 1243.567c-5.73-2.13-141.914-53.603-279.744-189.413-80.932-79.75-145.422-172.12-191.682-274.554C-19.729 651.756-49 507.946-49 352.148V-671.77l7.739-5.666c3.405-2.49 24.933-16.096 114.488-39.166 56.04-14.433 111.652-24.471 133.656-28.225l27.675-56.903 8.183-2.291C247.262-805.29 355.296-835 516-835c160.7 0 268.733 29.71 273.254 30.978l8.184 2.29 27.68 56.904c21.998 3.754 77.615 13.792 133.655 28.225 89.551 23.07 111.079 36.675 114.488 39.166l7.739 5.666V352.15c0 155.797-29.271 299.607-87.004 427.451-46.26 102.434-110.75 194.803-191.687 274.554-137.829 135.81-274.014 187.283-279.744 189.413L516 1246l-6.57-2.433z" fill="#05063A"/>
            <path d="M516-854c-163.292 0-273.772 30.38-278.391 31.675l-16.374 4.581-7.443 15.29-19.73 40.557c-26.422 4.679-75.86 14.072-125.623 26.885-84.943 21.877-112.24 35.843-120.954 42.216L-68-681.464V352.013c0 158.491 29.84 304.92 88.695 435.219 47.228 104.565 113.067 198.847 195.68 280.232 140.712 138.624 280.601 191.482 286.487 193.666L516 1266l13.138-4.87c5.886-2.184 145.775-55.042 286.487-193.666 82.613-81.385 148.452-175.667 195.68-280.232C1070.159 656.934 1100 510.504 1100 352.013V-681.464l-15.485-11.332c-8.714-6.378-36.011-20.339-120.954-42.216-49.763-12.813-99.2-22.206-125.623-26.885l-19.73-40.557-7.443-15.29-16.374-4.581C789.772-823.619 679.292-854 516-854m0 38c159.928 0 268.116 30.28 268.116 30.28l28.221 58.036s71.135 11.32 141.644 29.49C1044.538-674.867 1062-662.079 1062-662.079v1014.36C1062 1023.471 516 1226 516 1226S-30 1023.472-30 352.281v-1014.36s17.462-12.787 108.019-36.116c70.509-18.17 141.644-29.489 141.644-29.489l28.221-58.035S356.072-816 516-816" fill="#021324"/>
            <path d="M516.5-841c-161.613 0-270.49 29.937-275.047 31.209l-10.916 3.055-4.963 10.194-22.549 46.349c-23.963 4.14-77.3 13.952-131.025 27.788-88.42 22.768-111.66 36.51-116.675 40.18L-55-674.668V352.435c0 156.694 29.472 301.383 87.594 430.04 46.597 103.144 111.558 196.157 193.073 276.45 138.829 136.75 276.288 188.685 282.073 190.828l8.76 3.247 8.76-3.247c5.785-2.143 143.244-54.078 282.073-190.829 81.515-80.292 146.476-173.305 193.073-276.45C1058.528 653.818 1088 509.13 1088 352.435V-674.668l-10.325-7.557c-5.016-3.67-28.254-17.412-116.675-40.18-53.725-13.836-107.062-23.647-131.025-27.788l-22.55-46.349-4.962-10.194-10.916-3.055C786.989-811.063 678.113-841 516.5-841m0 25c160.075 0 268.361 30.28 268.361 30.28l28.247 58.036s71.201 11.324 141.774 29.49c90.64 23.333 108.118 36.116 108.118 36.116v1014.36C1063 1023.476 516.5 1226 516.5 1226S-30 1023.477-30 352.281v-1014.36s17.478-12.782 108.118-36.116c70.573-18.165 141.774-29.489 141.774-29.489l28.247-58.035S356.425-816 516.5-816" fill="#4D5871"/>
            <g transform="translate(-31 -821)">
                <mask id="d" fill="#fff">
                    <use xlink:href="#c"/>
                </mask>
                <path d="M547.5 472c236.162 0 601.606 248.03 491.686 543.405-109.924 295.377-116.38 401.871-58.19 614.175 58.19 212.309 296.004 533.3 296.004 533.3L547.5 2542-182 2162.88s237.814-320.991 296.004-533.3c58.19-212.304 51.734-318.798-58.19-614.175C-54.106 720.03 311.338 472 547.5 472" fill="#05063A" mask="url(#d)"/>
            </g>
            <g transform="translate(-31 -821)">
                <mask id="k" fill="#fff">
                    <use xlink:href="#j"/>
                </mask>
                <path d="M189.032 1066.586c81.573 106.314 55.263 184.234 42.44 255.414 34.749-39.868 43.272-58.876 102.353-71.317 59.086-12.437 45.71 8.462 107.175.559-29.563-16.344-135.182-47.06-79.71-152.314 10.328 43.69 39.476 51.035 47.43 52.242-21.918-29.047-17.07-31.307-14.575-57.841 2.5-26.539 9.584-34.207 19.569-63.232s9.152-16.584 4.99-46.44c-4.99 19.075-19.97 59.711-46.596 71.318 9.152-14.098 21.632-54.73 9.985-85.415-34.121 10.78-116.02 30.042-151.802 5.541 17.48 0 28.64-2.224 60.262-15.491-37.445-17.415-62.41-34.829-82.38-91.218-6.799 14.146-9.601 34.162-6.66 60.536-19.293-26.374-23.963-51.514-28.294-82.928-25.57 27.689-38.081 79.31-15.291 121.73 24.76 46.09 63.559 35.002 93.514 106.32 29.959 71.317 25.797 116.926 25.797 116.926s.834-77.95-88.207-124.39" fill="#5C667D" mask="url(#k)"/>
            </g>
            <g transform="translate(-31 -821)">
                <mask id="m" fill="#fff">
                    <use xlink:href="#l"/>
                </mask>
                <path d="M455.281 1261.027c44.933 37.482 60.36 81.93 25.993 159.98-34.367 78.05-131.33 97.243-178.468 78.133-47.143-19.105-78.081-106.56-32.414-184.463 65.744-112.146 154.511-78.99 184.89-53.65" fill="#5C667D" mask="url(#m)"/>
            </g>
            <g transform="translate(-31 -821)">
                <mask id="o" fill="#fff">
                    <use xlink:href="#n"/>
                </mask>
                <path d="M484 1339.5c0 45.564-30.444 82.5-68 82.5s-68-36.936-68-82.5 30.444-82.5 68-82.5 68 36.936 68 82.5" fill="#FFF" mask="url(#o)"/>
            </g>
            <g transform="translate(216 415)">
                <mask id="q" fill="#fff">
                    <use xlink:href="#p"/>
                </mask>
                <path d="M159 52.218s-102.254-8.86-227.313 86.374C-219.505 253.727-135.993 270-135.993 270s8.86 1.519 119.912-115.167C46.447 89.13 159 52.218 159 52.218" fill="#05063A" mask="url(#q)"/>
            </g>
            <g transform="translate(115 25)">
                <mask id="u" fill="#fff">
                    <use xlink:href="#t"/>
                </mask>
                <path d="M251 79.863C251 128.46 197.447 172 125.965 172S3 130.516.26 80.789C-2.418 32.26-7.364-34 64.118-34S251 31.264 251 79.863" fill="#B5BABC" mask="url(#u)"/>
            </g>
            <g transform="translate(-31 -821)">
                <mask id="w" fill="#fff">
                    <use xlink:href="#v"/>
                </mask>
                <path d="M133.662 1051c26.37 56.077 66.325 139.07 41.553 273.655-24.599 133.65-35.16 146.92-28.766 252.345-21.578-40.377-49.818-125.124-21.578-248.979 25.573-112.157 20.777-203 8.791-277.021" fill="#05063A" mask="url(#w)"/>
            </g>
            <g transform="translate(-31 -821)">
                <mask id="y" fill="#fff">
                    <use xlink:href="#x"/>
                </mask>
                <path d="M455.281 1261.027c44.933 37.482 60.36 81.93 25.993 159.98-34.367 78.05-131.33 97.243-178.468 78.133-47.143-19.105-78.081-106.56-32.414-184.463 65.744-112.146 154.511-78.99 184.89-53.65" fill="#5C667D" mask="url(#y)"/>
            </g>
            <g transform="translate(-31 -821)">
                <mask id="A" fill="#fff">
                    <use xlink:href="#z"/>
                </mask>
                <path d="M189.032 1066.586c81.573 106.314 55.263 184.234 42.44 255.414 34.749-39.868 43.272-58.876 102.353-71.317 59.086-12.437 45.71 8.462 107.175.559-29.563-16.344-135.182-47.06-79.71-152.314 10.328 43.69 39.476 51.035 47.43 52.242-21.918-29.047-17.07-31.307-14.575-57.841 2.5-26.539 9.584-34.207 19.569-63.232s9.152-16.584 4.99-46.44c-4.99 19.075-19.97 59.711-46.596 71.318 9.152-14.098 21.632-54.73 9.985-85.415-34.121 10.78-116.02 30.042-151.802 5.541 17.48 0 28.64-2.224 60.262-15.491-37.445-17.415-62.41-34.829-82.38-91.218-6.799 14.146-9.601 34.162-6.66 60.536-19.293-26.374-23.963-51.514-28.294-82.928-25.57 27.689-38.081 79.31-15.291 121.73 24.76 46.09 63.559 35.002 93.514 106.32 29.959 71.317 25.797 116.926 25.797 116.926s.834-77.95-88.207-124.39" fill="#5C667D" mask="url(#A)"/>
            </g>
            <g transform="translate(-31 -821)">
                <mask id="C" fill="#fff">
                    <use xlink:href="#B"/>
                </mask>
                <path d="M494 1350c0 54.676-41.413 99-92.498 99-51.089 0-92.502-44.324-92.502-99s41.413-99 92.502-99c51.085 0 92.498 44.324 92.498 99" fill="#B5BABC" mask="url(#C)"/>
            </g>
            <g transform="translate(-31 -821)">
                <mask id="E" fill="#fff">
                    <use xlink:href="#D"/>
                </mask>
                <path d="M484 1339.5c0 45.564-30.444 82.5-68 82.5s-68-36.936-68-82.5 30.444-82.5 68-82.5 68 36.936 68 82.5" fill="#FFF" mask="url(#E)"/>
            </g>
            <g transform="translate(216 415)">
                <mask id="G" fill="#fff">
                    <use xlink:href="#F"/>
                </mask>
                <path d="M159 52.218s-102.254-8.86-227.313 86.374C-219.505 253.727-135.993 270-135.993 270s8.86 1.519 119.912-115.167C46.447 89.13 159 52.218 159 52.218" fill="#05063A" mask="url(#G)"/>
            </g>
            <g transform="translate(-31 -821)">
                <mask id="K" fill="#fff">
                    <use xlink:href="#J"/>
                </mask>
                <path d="M372 929.921c-44.386-14.036-79.012-35.812-91.696-44.522-12.68-8.713-29.262-18.393-33.164-14.521-3.903 3.872 2.44 19.359 15.608 30.49 13.169 11.13 25.849 30.004 109.252 28.553" fill="#EB5437" mask="url(#K)"/>
            </g>
            <g transform="translate(115 25)">
                <mask id="M" fill="#fff">
                    <use xlink:href="#L"/>
                </mask>
                <path d="M251 79.863C251 128.46 197.447 172 125.965 172S3 130.516.26 80.789C-2.418 32.26-7.364-34 64.118-34S251 31.264 251 79.863" fill="#B5BABC" mask="url(#M)"/>
            </g>
            <g transform="translate(115 25)">
                <mask id="O" fill="#fff">
                    <use xlink:href="#N"/>
                </mask>
                <path d="M83.706 215s88.595 116.68 23.269 217c13.61-63.403 4.289-141.11-31.206-191.587C61.532 220.17 83.706 215 83.706 215" fill="#B5BABC" mask="url(#O)"/>
            </g>
            <g transform="translate(115 25)">
                <mask id="Q" fill="#fff">
                    <use xlink:href="#P"/>
                </mask>
                <path d="M94.765 233s59.79 86.428 27.841 156c4.354-47.099.482-85.828-24.473-125.895C89.073 248.566 94.765 233 94.765 233" fill="#FFF" mask="url(#Q)"/>
            </g>
            <g transform="translate(115 25)">
                <mask id="S" fill="#fff">
                    <use xlink:href="#R"/>
                </mask>
                <path d="M12.367 21.963C8.217 56.343 5.262 80.847 29 106c-6.997-3.593-27.049-15.33-27.923-45.611C.208 30.112 6.943 20 6.943 20l5.424 1.963z" fill="#FFF" mask="url(#S)"/>
            </g>
            <g transform="translate(-31 -821)">
                <mask id="U" fill="#fff">
                    <use xlink:href="#T"/>
                </mask>
                <path d="M133.662 1051c26.37 56.077 66.325 139.07 41.553 273.655-24.599 133.65-35.16 146.92-28.766 252.345-21.578-40.377-49.818-125.124-21.578-248.979 25.573-112.157 20.777-203 8.791-277.021" fill="#5C667D" mask="url(#U)"/>
            </g>
            <g>
                <g transform="translate(81 230)">
                    <mask id="W" fill="#fff">
                        <use xlink:href="#V"/>
                    </mask>
                    <path d="M45.225 51c38.137 50.187 34.718 169.427 10.945 229.91C37.185 329.214 18.733 371.851 23.945 456 10.787 422.809-1.16 350.86 28.191 259.798 51.047 188.882 57.353 165.608 45.225 51" fill="#B5BABC" mask="url(#W)"/>
                </g>
                <g transform="translate(81 230)">
                    <mask id="Y" fill="#fff">
                        <use xlink:href="#X"/>
                    </mask>
                    <path d="M66.304 133.347c8.11 61.214 1.844 84.306-8.843 113.629C41.475 290.83 21.381 326.123 17.21 403c-3.607-47.892-1.029-88.948 34.354-184.613 23.473-63.47 10.32-88.708 14.741-85.04" fill="#FFF" mask="url(#Y)"/>
                </g>
            </g>
            <g>
                <g transform="translate(-31 -821)">
                    <mask id="ai" fill="#fff">
                        <use xlink:href="#ah"/>
                    </mask>
                    <path d="M960.338 1051c-26.37 56.077-66.325 139.07-41.553 273.655 24.599 133.65 35.16 146.92 28.766 252.345 21.578-40.377 49.818-125.124 21.578-248.979-25.573-112.157-20.777-203-8.791-277.021" fill="#05063A" mask="url(#ai)"/>
                </g>
                <g transform="translate(-31 -821)">
                    <mask id="ak" fill="#fff">
                        <use xlink:href="#aj"/>
                    </mask>
                    <path d="M960.338 1051c-26.37 56.077-66.325 139.07-41.553 273.655 24.599 133.65 35.16 146.92 28.766 252.345 21.578-40.377 49.818-125.124 21.578-248.979-25.573-112.157-20.777-203-8.791-277.021" fill="#5C667D" mask="url(#ak)"/>
                </g>
            </g>
            <g>
                <g transform="translate(878 230)">
                    <mask id="am" fill="#fff">
                        <use xlink:href="#al"/>
                    </mask>
                    <path d="M26.775 51C-11.362 101.187-7.943 220.427 15.83 280.91 34.815 329.214 53.267 371.851 48.055 456c13.158-33.191 25.105-105.14-4.246-196.202C20.953 188.882 14.647 165.608 26.775 51" fill="#B5BABC" mask="url(#am)"/>
                </g>
                <g transform="translate(878 230)">
                    <mask id="ao" fill="#fff">
                        <use xlink:href="#an"/>
                    </mask>
                    <path d="M3.696 133.347c-8.11 61.214-1.844 84.306 8.843 113.629C28.525 290.83 48.619 326.123 52.79 403c3.607-47.892 1.029-88.948-34.354-184.613-23.473-63.47-10.32-88.708-14.741-85.04" fill="#FFF" mask="url(#ao)"/>
                </g>
            </g>
            <g>
                <g transform="translate(-31 -821)">
                    <mask id="aq" fill="#fff">
                        <use xlink:href="#ap"/>
                    </mask>
                    <path d="M638.719 1261.027c-44.933 37.482-60.36 81.93-25.993 159.98 34.367 78.05 131.33 97.243 178.472 78.133 47.139-19.105 78.077-106.56 32.41-184.463-65.744-112.146-154.512-78.99-184.89-53.65" fill="#5C667D" mask="url(#aq)"/>
                </g>
                <g transform="translate(-31 -821)">
                    <mask id="as" fill="#fff">
                        <use xlink:href="#ar"/>
                    </mask>
                    <path d="M610 1339.5c0 45.564 30.444 82.5 68 82.5s68-36.936 68-82.5-30.444-82.5-68-82.5-68 36.936-68 82.5" fill="#FFF" mask="url(#as)"/>
                </g>
            </g>
            <g>
                <g transform="translate(562 415)">
                    <mask id="au" fill="#fff">
                        <use xlink:href="#at"/>
                    </mask>
                    <path d="M93 52.218s102.254-8.86 227.313 86.374C471.505 253.727 387.993 270 387.993 270s-8.86 1.519-119.912-115.167C205.553 89.13 93 52.218 93 52.218" fill="#05063A" mask="url(#au)"/>
                </g>
            </g>
            <g>
                <g transform="translate(-31 -821)">
                    <mask id="ay" fill="#fff">
                        <use xlink:href="#ax"/>
                    </mask>
                    <path d="M722 929.921c44.386-14.036 79.012-35.812 91.696-44.522 12.68-8.713 29.262-18.393 33.164-14.521 3.903 3.872-2.44 19.359-15.608 30.49-13.169 11.13-25.849 30.004-109.252 28.553" fill="#D6DDFF" mask="url(#ay)"/>
                </g>
                <g transform="translate(-31 -821)">
                    <mask id="aA" fill="#fff">
                        <use xlink:href="#az"/>
                    </mask>
                    <path d="M904.968 1066.586C823.395 1172.9 849.705 1250.82 862.528 1322c-34.749-39.868-43.272-58.876-102.353-71.317-59.086-12.437-45.71 8.462-107.175.559 29.563-16.344 135.182-47.06 79.71-152.314-10.328 43.69-39.476 51.035-47.43 52.242 21.918-29.047 17.07-31.307 14.575-57.841-2.5-26.539-9.584-34.207-19.569-63.232s-9.152-16.584-4.99-46.44c4.99 19.075 19.97 59.711 46.596 71.318-9.152-14.098-21.632-54.73-9.985-85.415 34.121 10.78 116.02 30.042 151.798 5.541-17.475 0-28.636-2.224-60.258-15.491 37.445-17.415 62.41-34.829 82.38-91.218 6.799 14.146 9.601 34.162 6.66 60.536 19.293-26.374 23.963-51.514 28.294-82.928 25.57 27.689 38.081 79.31 15.291 121.73-24.76 46.09-63.559 35.002-93.514 106.32-29.959 71.317-25.797 116.926-25.797 116.926s-.834-77.95 88.207-124.39" fill="#5C667D" mask="url(#aA)"/>
                </g>
            </g>
            <g transform="translate(620 25)">
                <mask id="aC" fill="#fff">
                    <use xlink:href="#aB"/>
                </mask>
                <path d="M44 79.863C44 128.46 97.553 172 169.035 172S292 130.516 294.74 80.789C297.418 32.26 302.364-34 230.882-34S44 31.264 44 79.863" fill="#B5BABC" mask="url(#aC)"/>
            </g>
            <g>
                <g transform="translate(-31 -821)">
                    <mask id="aE" fill="#fff">
                        <use xlink:href="#aD"/>
                    </mask>
                    <path d="M638.719 1261.027c-44.933 37.482-60.36 81.93-25.993 159.98 34.367 78.05 131.33 97.243 178.472 78.133 47.139-19.105 78.077-106.56 32.41-184.463-65.744-112.146-154.512-78.99-184.89-53.65" fill="#5C667D" mask="url(#aE)"/>
                </g>
                <g transform="translate(-31 -821)">
                    <mask id="aG" fill="#fff">
                        <use xlink:href="#aF"/>
                    </mask>
                    <path d="M600 1350c0 54.676 41.413 99 92.498 99 51.089 0 92.502-44.324 92.502-99s-41.413-99-92.502-99c-51.085 0-92.498 44.324-92.498 99" fill="#B5BABC" mask="url(#aG)"/>
                </g>
                <g transform="translate(-31 -821)">
                    <mask id="aI" fill="#fff">
                        <use xlink:href="#aH"/>
                    </mask>
                    <path d="M610 1339.5c0 45.564 30.444 82.5 68 82.5s68-36.936 68-82.5-30.444-82.5-68-82.5-68 36.936-68 82.5" fill="#FFF" mask="url(#aI)"/>
                </g>
            </g>
            <g>
                <g transform="translate(562 415)">
                    <mask id="aK" fill="#fff">
                        <use xlink:href="#aJ"/>
                    </mask>
                    <path d="M93 52.218s102.254-8.86 227.313 86.374C471.505 253.727 387.993 270 387.993 270s-8.86 1.519-119.912-115.167C205.553 89.13 93 52.218 93 52.218" fill="#05063A" mask="url(#aK)"/>
                </g>
            </g>
            <g>
                <g transform="translate(-31 -821)">
                    <mask id="aO" fill="#fff">
                        <use xlink:href="#aN"/>
                    </mask>
                    <path d="M722 929.921c44.386-14.036 79.012-35.812 91.696-44.522 12.68-8.713 29.262-18.393 33.164-14.521 3.903 3.872-2.44 19.359-15.608 30.49-13.169 11.13-25.849 30.004-109.252 28.553" fill="#EB5437" mask="url(#aO)"/>
                </g>
                <g transform="translate(-31 -821)">
                    <mask id="aQ" fill="#fff">
                        <use xlink:href="#aP"/>
                    </mask>
                    <path d="M904.968 1066.586C823.395 1172.9 849.705 1250.82 862.528 1322c-34.749-39.868-43.272-58.876-102.353-71.317-59.086-12.437-45.71 8.462-107.175.559 29.563-16.344 135.182-47.06 79.71-152.314-10.328 43.69-39.476 51.035-47.43 52.242 21.918-29.047 17.07-31.307 14.575-57.841-2.5-26.539-9.584-34.207-19.569-63.232s-9.152-16.584-4.99-46.44c4.99 19.075 19.97 59.711 46.596 71.318-9.152-14.098-21.632-54.73-9.985-85.415 34.121 10.78 116.02 30.042 151.798 5.541-17.475 0-28.636-2.224-60.258-15.491 37.445-17.415 62.41-34.829 82.38-91.218 6.799 14.146 9.601 34.162 6.66 60.536 19.293-26.374 23.963-51.514 28.294-82.928 25.57 27.689 38.081 79.31 15.291 121.73-24.76 46.09-63.559 35.002-93.514 106.32-29.959 71.317-25.797 116.926-25.797 116.926s-.834-77.95 88.207-124.39" fill="#5C667D" mask="url(#aQ)"/>
                </g>
            </g>
            <g>
                <g transform="translate(620 25)">
                    <mask id="aS" fill="#fff">
                        <use xlink:href="#aR"/>
                    </mask>
                    <path d="M44 79.863C44 128.46 97.553 172 169.035 172S292 130.516 294.74 80.789C297.418 32.26 302.364-34 230.882-34S44 31.264 44 79.863" fill="#B5BABC" mask="url(#aS)"/>
                </g>
                <g transform="translate(620 25)">
                    <mask id="aU" fill="#fff">
                        <use xlink:href="#aT"/>
                    </mask>
                    <path d="M211.294 215s-88.595 116.68-23.269 217c-13.61-63.403-4.289-141.11 31.206-191.587C233.468 220.17 211.294 215 211.294 215" fill="#B5BABC" mask="url(#aU)"/>
                </g>
                <g transform="translate(620 25)">
                    <mask id="aW" fill="#fff">
                        <use xlink:href="#aV"/>
                    </mask>
                    <path d="M201.235 233s-59.79 86.428-27.841 156c-4.354-47.099-.482-85.828 24.473-125.895 9.06-14.539 3.368-30.105 3.368-30.105" fill="#FFF" mask="url(#aW)"/>
                </g>
                <g transform="translate(620 25)">
                    <mask id="aY" fill="#fff">
                        <use xlink:href="#aX"/>
                    </mask>
                    <path d="M282.633 21.963c4.15 34.38 7.105 58.884-16.633 84.037 6.997-3.593 27.049-15.33 27.923-45.611.869-30.277-5.866-40.389-5.866-40.389l-5.424 1.963z" fill="#FFF" mask="url(#aY)"/>
                </g>
            </g>
            <g transform="translate(-31 -821)">
                <mask id="ba" fill="#fff">
                    <use xlink:href="#aZ"/>
                </mask>
                <path d="M547 1186s57.15-9.622 114.967-24.496c57.814-14.87 49.928-77.855 30.657-106.722-19.271-28.868-21.021-90.977-20.144-131.219.873-40.237-4.76-59.357-23.652-69.109 35.14 1.312 40.292 26.244 74.457 29.744 34.165 3.499 63.072-16.622 100.737-42.865 37.669-26.244 78.5-31.962 91.978-34.115C853.538 711.106 745.432 677.614 654.959 676c50.315 22.766 66.643 39.952 73.58 49.864-70.036-26.217-148.037-19.245-148.037-19.245L547 745.11l-33.502-38.49s-78.001-6.972-148.037 19.245c6.937-9.912 23.265-27.098 73.58-49.864-90.473 1.614-198.58 35.106-261.041 131.218 13.478 2.153 54.309 7.87 91.978 34.115 37.665 26.243 66.572 46.364 100.737 42.865 34.165-3.5 39.317-28.432 74.457-29.744-18.892 9.752-24.525 28.872-23.652 69.11.877 40.24-.873 102.35-20.144 131.218-19.271 28.867-27.157 91.852 30.657 106.722C489.85 1176.378 547 1186 547 1186" fill="#5C667D" mask="url(#ba)"/>
            </g>
            <g>
                <g transform="translate(146 -145)">
                    <mask id="bc" fill="#fff">
                        <use xlink:href="#bb"/>
                    </mask>
                    <path d="m370.5 534 200.507-23.377s-36.287-243.015-53.51-283.006c-17.22-39.987-45.35-48.883-45.35-48.883s19.521.898 59.497 1.512c39.98.618 63.351-9.844 97.18-44.295 33.829-34.452 53.51-40.605 105.176-39.374 0 0-135.316-132.275-230.647-137.197C408.018-45.54 370.5-48 370.5-48s-37.518 2.459-132.853 7.38C142.316-35.698 7 96.577 7 96.577c51.666-1.231 71.347 4.922 105.176 39.374 33.829 34.451 57.2 44.913 97.18 44.295 39.976-.614 59.497-1.512 59.497-1.512s-28.13 8.896-45.35 48.883c-17.223 39.991-53.51 283.006-53.51 283.006L370.5 534z" fill="#B5BABC" mask="url(#bc)"/>
                </g>
                <g transform="translate(146 -145)">
                    <mask id="be" fill="#fff">
                        <use xlink:href="#bd"/>
                    </mask>
                    <path d="M122 122s22.92 31.116 50.084 40.067c27.163 8.95 81.916 5.117 81.916 5.117s-48.387-5.157-78.522-17.07C145.342 138.196 122 122 122 122" fill="#FFF" mask="url(#be)"/>
                </g>
                <g transform="translate(146 -145)">
                    <mask id="bg" fill="#fff">
                        <use xlink:href="#bf"/>
                    </mask>
                    <path d="M615 122s-22.92 31.116-50.084 40.067c-27.163 8.95-81.916 5.117-81.916 5.117s48.387-5.157 78.522-17.07C591.658 138.196 615 122 615 122" fill="#FFF" mask="url(#bg)"/>
                </g>
                <g transform="translate(146 -145)">
                    <mask id="bk" fill="#fff">
                        <use xlink:href="#bj"/>
                    </mask>
                    <path d="M368.5 160c32.647 0 81.31-14.964 105.334-30.675 24.025-15.711 71.455-25.437 91.166-24.69-9.241-11.97-52.358-18.706-85.623-8.98-33.262 9.726-75.764 14.218-110.877 14.218s-77.615-4.492-110.877-14.218c-33.265-9.726-76.382-2.99-85.623 8.98 19.711-.747 67.141 8.979 91.166 24.69C287.19 145.035 335.853 160 368.5 160" fill="#5C667D" mask="url(#bk)"/>
                </g>
                <g transform="translate(146 -145)">
                    <mask id="bm" fill="#fff">
                        <use xlink:href="#bl"/>
                    </mask>
                    <path d="M368.5 148c32.647 0 81.31-12.363 105.334-25.343C497.86 109.68 545.29 101.646 565 102.262c-9.241-9.889-52.358-15.45-85.623-7.419-33.262 8.036-75.764 11.747-110.877 11.747s-77.615-3.711-110.877-11.747c-33.265-8.03-76.382-2.47-85.623 7.42 19.711-.617 67.141 7.418 91.166 20.394C287.19 135.637 335.853 148 368.5 148" fill="#05063A" mask="url(#bm)"/>
                </g>
                <g transform="translate(146 -145)">
                    <mask id="bo" fill="#fff">
                        <use xlink:href="#bn"/>
                    </mask>
                    <path d="M276.373 230c-26.685 22.197-10.268 70.672-11.482 94.719C263.681 348.765 247.033 363.49 244 390c21.101-33.937 32.417-33.559 35.48-61.566 3.638-33.295-13.366-59.908-3.107-98.434" fill="#05063A" mask="url(#bo)"/>
                </g>
                <g transform="translate(146 -145)">
                    <mask id="bq" fill="#fff">
                        <use xlink:href="#bp"/>
                    </mask>
                    <path d="M460.627 230c26.685 22.197 10.268 70.672 11.482 94.719C473.319 348.765 489.967 363.49 493 390c-21.101-33.937-32.417-33.559-35.48-61.566-3.638-33.295 13.366-59.908 3.107-98.434" fill="#05063A" mask="url(#bq)"/>
                </g>
                <g transform="translate(146 -145)">
                    <mask id="bs" fill="#fff">
                        <use xlink:href="#br"/>
                    </mask>
                    <path d="M368.5 509.517s106.466 12.303 137.767-33.97c31.297-46.273-6.68-77.968-36.224-95.191-29.54-17.219-30.767-62.732-27.694-117.473C445.427 208.143 394.962 194 368.5 194c-26.462 0-76.927 14.143-73.85 68.883 3.074 54.74 1.846 100.254-27.693 117.473-29.544 17.223-67.52 48.918-36.224 95.19 31.3 46.274 137.767 33.971 137.767 33.971" fill="#FFF" mask="url(#bs)"/>
                </g>
            </g>
            <g>
                <g transform="translate(-31 -821)">
                    <mask id="bu" fill="#fff">
                        <use xlink:href="#bt"/>
                    </mask>
                    <path d="M657 1153.183s-18.905-5.173-50.258 6.114C575.385 1170.588 565.442 1172 547 1172c-18.446 0-28.39-1.412-59.742-12.703-31.357-11.287-50.258-6.114-50.258-6.114" stroke="#131445" stroke-width="12.125" stroke-linecap="round" mask="url(#bu)"/>
                </g>
                <g transform="translate(-31 -821)">
                    <mask id="bw" fill="#fff">
                        <use xlink:href="#bv"/>
                    </mask>
                    <path d="M545.99 1179c-19.74 0-30.225-1.709-61.657-13.028-28.605-10.301-46.09-5.974-46.267-5.933-3.423.883-6.952-1.19-7.853-4.67-.896-3.48 1.114-7.038 4.537-7.975.848-.23 21.138-5.55 53.893 6.243 31.295 11.27 40.115 12.276 57.347 12.276s26.057-1.005 57.351-12.276c32.751-11.788 53.046-6.473 53.894-6.243 3.431.942 5.469 4.535 4.54 8.024-.922 3.476-4.43 5.536-7.86 4.62-.28-.071-17.747-4.34-46.263 5.934-31.433 11.32-41.922 13.028-61.662 13.028" fill="#EB5437" mask="url(#bw)"/>
                </g>
            </g>
            <g transform="translate(102 -366)">
                <mask id="by" fill="#fff">
                    <use xlink:href="#bx"/>
                </mask>
                <path d="M414 58C.157 58-140 291.93-140 580.498-140 869.07 108.032 1103 414 1103c305.968 0 554-233.93 554-522.502C968 291.93 827.843 58 414 58m582 639.5c0 291.333-260.568 527.5-582 527.5s-582-236.167-582-527.5C-168 406.171 27.076 170 414 170s582 236.171 582 527.5" fill="#FBC333" mask="url(#by)"/>
            </g>
        </g>
        <rect stroke-opacity=".084" stroke="#FFF" stroke-width="2" x="1" y="1" width="1030" height="494" rx="24"/>
    </g>
</svg>
